<svg width="190" height="18" viewBox="0 0 190 18" fill="none" xmlns="http://www.w3.org/2000/svg">
<path d="M12.1466 2.17488C12.4354 1.94871 12.6902 1.68229 12.9033 1.38375C12.9829 1.19242 13.0968 1.09782 13.2494 1.09782C13.4021 1.09782 13.4966 1.23971 13.5117 1.52778L13.7761 5.70486C13.7835 5.84887 13.7733 5.99323 13.746 6.13482C13.7245 6.18641 13.6686 6.21221 13.5719 6.21221C13.4752 6.21221 13.3096 6.04022 13.1656 5.6984C12.6891 4.49778 11.9346 3.42727 10.9642 2.57474C10.1164 1.80852 9.0176 1.3788 7.87491 1.36655C6.90121 1.36623 5.95646 1.69758 5.19626 2.30601C4.32778 3.00689 3.67068 3.93487 3.29799 4.98682C2.84126 6.17983 2.61229 7.44792 2.62295 8.72533C2.62295 10.9912 3.2471 12.8322 4.49542 14.2482C5.74374 15.6642 7.13824 16.3722 8.67894 16.3722C9.72454 16.3725 10.7402 16.0229 11.564 15.379C12.3929 14.774 13.073 13.9881 13.5526 13.0808C13.6708 12.8422 13.7955 12.7218 13.9223 12.7218C14.0986 12.7218 14.1867 12.8186 14.1867 13.0099C14.1867 13.2421 13.8815 13.7473 13.2752 14.5298C12.6359 15.3392 11.8186 15.9903 10.8868 16.4324C9.89858 16.9187 8.81072 17.1682 7.70937 17.1612C6.3758 17.1618 5.06561 16.8111 3.91068 16.1443C2.72306 15.4814 1.73664 14.5098 1.05573 13.3324C0.331194 12.0492 -0.0327986 10.594 0.00232104 9.1209C-0.0197371 7.63378 0.332135 6.16494 1.02563 4.84924C1.68196 3.60762 2.68209 2.58137 3.90638 1.89325C5.06919 1.2111 6.39136 0.847739 7.73947 0.839844C8.46822 0.844796 9.19238 0.955599 9.88928 1.16877C10.6791 1.41306 11.4369 1.75082 12.1466 2.17488Z" fill="white"/>
<path d="M27.4298 0.867188H27.9844C28.8745 2.69452 30.1034 5.81818 31.6714 10.2382C32.6818 13.0688 33.3747 14.8058 33.7502 15.4493C34.1257 16.0928 34.7298 16.4511 35.5625 16.5242C35.8248 16.5479 35.9581 16.636 35.9581 16.7865C35.9581 16.8983 35.8893 16.9542 35.7431 16.9542L35.5754 16.9434C34.8416 16.8789 33.91 16.8467 32.7807 16.8467C31.0422 16.8467 29.925 16.8746 29.4291 16.9305C29.1819 16.9305 29.0572 16.8596 29.0572 16.7156C29.0572 16.6124 29.1496 16.5479 29.3345 16.5242C30.011 16.4597 30.4796 16.3436 30.7405 16.176C30.87 16.0914 30.9743 15.9735 31.0424 15.8346C31.1105 15.6958 31.1399 15.5411 31.1275 15.387C31.1275 15.0459 30.8845 14.186 30.3987 12.8072L29.6935 10.7498C29.2793 10.7498 27.4248 10.7735 24.1298 10.8208C23.3 13.0308 22.8844 14.4246 22.883 15.0022C22.8726 15.2232 22.925 15.4428 23.0342 15.6353C23.1434 15.8278 23.3049 15.9854 23.5 16.09C23.8686 16.3136 24.2847 16.4476 24.7146 16.4812C25.0091 16.5049 25.1574 16.5952 25.1574 16.75C25.1574 16.8123 25.1101 16.8703 25.0134 16.9241C23.7364 16.8682 22.9668 16.8402 22.7045 16.8402C21.363 16.8402 20.4616 16.856 20.0001 16.8875C19.7442 16.8875 19.6152 16.8166 19.6152 16.6726C19.6152 16.5285 19.7292 16.4576 19.9528 16.4339C20.8686 16.3135 21.5701 15.6915 22.0574 14.5679C22.5447 13.4443 23.3036 11.4213 24.3341 8.499C25.28 5.84614 26.3119 3.3022 27.4298 0.867188ZM26.9525 3.47706C26.2087 4.99339 25.3423 7.19478 24.3534 10.0813C25.1746 10.0426 25.7637 10.0211 26.1227 10.0211L29.4872 10.0813C29.1919 9.25143 28.7777 8.15073 28.2446 6.77916C27.591 5.14244 27.1603 4.04174 26.9525 3.47706Z" fill="white"/>
<path d="M51.2466 8.81848C52.3545 9.2986 53.1248 9.80023 53.5577 10.3233C53.9905 10.8465 54.3101 11.6555 54.5165 12.7505C54.7831 14.1837 55.1557 15.1489 55.6344 15.6463C55.8788 15.8945 56.1698 16.092 56.4908 16.2274C56.8118 16.3628 57.1563 16.4334 57.5047 16.4352C57.7197 16.451 57.8272 16.5284 57.8272 16.6674C57.8272 16.8072 57.7046 16.8824 57.4574 16.8824C55.2216 16.8824 53.8672 16.8108 53.3943 16.6674C52.9213 16.5241 52.568 15.7086 52.3344 14.2209C52.2012 13.1479 51.9754 12.0884 51.6594 11.0543C51.4582 10.4362 51.0632 9.89944 50.5329 9.52361C50.0198 9.16818 49.2165 8.99046 48.1229 8.99046C47.6493 8.9953 47.1769 9.03916 46.7105 9.1216C46.6697 9.62465 46.6503 10.1449 46.6503 10.6867C46.6503 12.7333 46.6783 14.0576 46.7342 14.6595C46.7901 15.2614 46.9592 15.7 47.2415 15.9752C47.5253 16.2482 47.9983 16.4051 48.6604 16.4051C48.9485 16.4051 49.0904 16.4847 49.0904 16.6201C49.0904 16.7556 48.9141 16.8545 48.5637 16.8545H42.6388C42.297 16.8545 42.125 16.7771 42.125 16.6201C42.125 16.4632 42.2604 16.4051 42.5313 16.4051C43.1376 16.4051 43.5589 16.3149 43.7954 16.13C44.059 15.9026 44.2516 15.604 44.35 15.2701C44.4855 14.8831 44.565 14.1823 44.565 13.1718L44.5414 10.7318L44.5521 7.01264C44.578 5.75582 44.5364 4.49853 44.4274 3.24618C44.3443 2.63277 44.1945 2.22001 43.9781 2.00789C43.7617 1.79578 43.2601 1.63096 42.4733 1.51344C42.3056 1.48764 42.2239 1.421 42.2239 1.30921C42.2239 1.19742 42.3894 1.11787 42.7248 1.11787L49.8191 0.960938C51.7726 0.960938 53.19 1.33572 54.0715 2.08528C54.4867 2.41322 54.8218 2.83147 55.0513 3.30827C55.2808 3.78508 55.3986 4.30789 55.3958 4.83703C55.4017 5.50081 55.2166 6.1523 54.8626 6.71382C54.559 7.23007 54.1224 7.65545 53.5985 7.94566C52.8411 8.30372 52.0542 8.59574 51.2466 8.81848ZM46.7105 8.51321C48.2412 8.48025 49.3878 8.37276 50.1502 8.19074C50.9146 8.00727 51.6002 7.58387 52.1065 6.98255C52.6408 6.36998 52.9289 5.58096 52.9149 4.76824C52.9283 3.89414 52.6068 3.04802 52.0163 2.40345C51.4186 1.73271 50.4612 1.39734 49.1441 1.39734C48.3428 1.40754 47.5449 1.50413 46.7643 1.68542C46.6682 3.88109 46.6202 5.62817 46.6202 6.92665C46.6245 7.37811 46.6546 7.90697 46.7105 8.51321Z" fill="white"/>
<path d="M72.4011 8.38051C73.8845 8.77177 74.9952 9.31854 75.7333 10.0208C76.0883 10.3456 76.3705 10.7418 76.5614 11.1835C76.7522 11.6252 76.8473 12.1023 76.8405 12.5834C76.8405 13.6626 76.3819 14.6565 75.4646 15.5652C74.5474 16.4738 73.1987 16.9332 71.4187 16.9432C71.0833 16.9432 70.5587 16.9238 69.8149 16.883L69.0496 16.8464C66.5931 16.8464 64.9334 16.8708 64.0706 16.9195C63.7847 16.9195 63.6407 16.8443 63.6407 16.6917C63.6398 16.6538 63.6516 16.6167 63.6742 16.5864C63.6968 16.556 63.7288 16.534 63.7654 16.524C64.0712 16.4434 64.3813 16.3795 64.6941 16.3326C64.986 16.2915 65.2536 16.1474 65.4487 15.9263C65.6307 15.7099 65.7704 15.2706 65.8679 14.6085C65.9795 13.6273 66.0269 12.6399 66.0098 11.6525C66.0098 10.3626 66.0255 9.31997 66.0571 8.52454C66.0886 7.72911 66.1051 7.12072 66.1065 6.69936C66.1189 5.64032 66.0687 4.58149 65.956 3.52839C65.8571 2.7301 65.7138 2.22131 65.5261 2.00203C65.3412 1.78705 64.9671 1.63011 64.3996 1.54197C64.1695 1.50972 64.0534 1.42589 64.0534 1.29045C64.0534 1.15501 64.1695 1.07547 64.3996 1.07547L66.5795 1.10986C67.2889 1.10986 67.9532 1.09482 68.5766 1.06257C69.9726 0.992341 70.8741 0.956511 71.2811 0.955078C72.7587 0.955078 73.9311 1.27755 74.7982 1.92249C75.2134 2.22379 75.5482 2.62253 75.7731 3.08363C75.9981 3.54473 76.1062 4.05404 76.0881 4.56675C76.1008 5.40214 75.7931 6.21068 75.2281 6.8262C74.6749 7.45538 73.7326 7.97348 72.4011 8.38051ZM68.295 8.9373C68.1603 9.26676 68.1029 9.62272 68.1273 9.97781L68.0435 13.6884C68.0435 14.9955 68.0779 15.7264 68.1467 15.8769C68.2155 16.0274 68.4455 16.1563 68.8411 16.2595C69.4569 16.3855 70.0854 16.4382 70.7135 16.4165C71.3452 16.4397 71.9748 16.3313 72.5624 16.0983C73.1114 15.8188 73.5666 15.3846 73.8716 14.8493C74.2848 14.1775 74.4933 13.3998 74.4714 12.6113C74.4714 11.3214 74.0902 10.3719 73.3277 9.76283C72.5652 9.15372 71.438 8.8506 69.946 8.85347C69.4459 8.85347 68.8955 8.8814 68.295 8.9373ZM68.295 1.80424C68.2233 3.55132 68.1882 4.96733 68.1897 6.05226V7.8237C68.1686 7.98278 68.2044 8.14417 68.2907 8.27946C68.4628 8.36567 68.6566 8.3986 68.8475 8.37405C70.3638 8.37405 71.5821 8.09673 72.5022 7.54208C73.4223 6.98743 73.8809 6.05584 73.8781 4.74733C73.8781 3.63803 73.5369 2.81035 72.8547 2.2643C72.129 1.70186 71.2292 1.4113 70.3115 1.44308C69.625 1.46159 68.9453 1.58335 68.295 1.80424Z" fill="white"/>
<path d="M83.834 8.90986C83.834 7.83352 84.1607 6.65041 84.8143 5.36053C85.4751 4.06541 86.4639 2.96617 87.6821 2.17237C88.9407 1.33302 90.424 0.894547 91.9366 0.914729C94.1466 0.914729 95.9711 1.70299 97.41 3.27952C98.8489 4.85604 99.5691 6.65974 99.5706 8.69059C99.5706 10.8404 98.773 12.7752 97.1778 14.4951C95.5827 16.2149 93.6658 17.0691 91.4271 17.0576C90.4186 17.0815 89.4164 16.8939 88.4848 16.507C87.5532 16.1201 86.713 15.5424 86.0182 14.8111C84.5635 13.3091 83.8354 11.342 83.834 8.90986ZM86.5019 8.52075C86.5105 9.87734 86.7117 11.2258 87.0995 12.5258C87.4994 13.8945 88.1257 14.8885 88.9785 15.5076C89.7656 16.1047 90.725 16.4306 91.713 16.4363C93.2895 16.4363 94.5472 15.6717 95.4859 14.1425C96.4499 12.5409 96.9411 10.6992 96.9026 8.83032C96.9396 7.0142 96.436 5.22808 95.4558 3.69873C94.4898 2.2211 93.2308 1.48228 91.6786 1.48228C91.1357 1.46745 90.5955 1.56459 90.0918 1.76764C89.588 1.9707 89.1315 2.27532 88.7506 2.66252C87.9627 3.45376 87.3733 4.42031 87.0307 5.48307C86.695 6.4613 86.5165 7.4866 86.5019 8.52075Z" fill="white"/>
<path d="M109.929 1.26779C110.409 1.91273 111.239 2.91597 112.418 4.27752L116.247 8.71687L119.934 12.9778C120.014 11.5331 120.055 9.65848 120.055 7.35389C120.076 6.19332 120.039 5.03241 119.945 3.8755C119.88 3.29923 119.595 2.77029 119.149 2.39859C118.671 1.99232 118.057 1.77922 117.43 1.80093C117.109 1.80093 116.95 1.73215 116.95 1.59671C116.948 1.56098 116.957 1.52543 116.975 1.49447C116.993 1.46351 117.019 1.43851 117.051 1.42257C117.585 1.34957 118.123 1.31366 118.661 1.31507C119.665 1.28068 120.51 1.26276 121.198 1.26133L122.813 1.27424H123.077C123.324 1.27424 123.447 1.34303 123.447 1.48922C123.447 1.63541 123.339 1.687 123.124 1.7042C122.318 1.79234 121.738 2.00087 121.383 2.33409C121.005 2.71752 120.779 3.22584 120.749 3.76371C120.682 4.38715 120.648 6.48321 120.648 10.0519L120.53 16.3766C120.53 16.6948 120.45 16.8539 120.293 16.8539C120.235 16.8486 120.179 16.8302 120.13 16.8001C119.745 16.4217 119.386 16.018 119.055 15.592C118.41 14.8223 117.615 13.8986 116.669 12.8208C115.723 11.7431 114.979 10.8695 114.437 10.2002C113.249 8.75699 112.499 7.8677 112.188 7.53233C111.03 6.30407 110.347 5.51581 110.14 5.16754C110.004 4.92891 109.882 4.80851 109.77 4.80851C109.658 4.80851 109.639 4.96331 109.639 5.27503L109.662 7.13031C109.662 9.4822 109.726 11.3611 109.854 12.7671C109.981 14.1709 110.116 14.9943 110.254 15.2372C110.443 15.5312 110.692 15.7818 110.984 15.9725C111.304 16.2121 111.692 16.3425 112.092 16.3444C112.618 16.3444 112.881 16.439 112.881 16.6303C112.881 16.7743 112.734 16.8453 112.438 16.8453L106.683 16.8324C106.41 16.8324 106.276 16.7657 106.276 16.6174C106.276 16.4691 106.408 16.3788 106.67 16.3788C107.653 16.3788 108.307 16.1638 108.633 15.7338C108.958 15.3039 109.121 14.3802 109.123 12.9627L109.024 8.76201C109.024 6.28113 108.957 4.81927 108.824 4.37641C108.61 3.79142 108.3 3.24588 107.908 2.7619C107.432 2.12843 106.892 1.77013 106.287 1.687C106.016 1.6569 105.881 1.58381 105.881 1.47202C105.881 1.32153 106.057 1.24414 106.408 1.24414L109.929 1.26779Z" fill="white"/>
<path d="M142.486 1.322C142.781 2.562 143.009 3.8172 143.167 5.08201C143.129 5.14436 143.088 5.17661 143.04 5.17661C142.971 5.16883 142.907 5.13502 142.862 5.08201C142.427 4.34108 141.895 3.66089 141.282 3.05905C140.843 2.63708 140.329 2.30158 139.766 2.07013C139.262 1.87378 138.39 1.77633 137.15 1.77776C136.224 1.76261 135.298 1.83459 134.385 1.99274C134.309 2.12259 134.276 2.27283 134.289 2.4227C134.289 2.4786 134.289 2.57964 134.265 2.72153C134.186 3.35787 134.146 5.08632 134.145 7.90686C134.145 8.0251 134.145 8.19279 134.17 8.40777C134.777 8.43142 135.191 8.44431 135.415 8.44431C136.418 8.44431 137.147 8.29383 137.601 7.99286C138.056 7.69189 138.448 7.04695 138.78 6.05803C138.835 5.8882 138.915 5.8065 139.018 5.8065C139.169 5.8065 139.244 5.92043 139.244 6.15261L139.197 6.63203C139.131 7.28136 139.099 7.93359 139.1 8.5862C139.1 9.674 139.12 10.6536 139.16 11.525C139.16 11.7959 139.088 11.9313 138.945 11.9313C138.835 11.9313 138.762 11.8367 138.73 11.6454C138.562 10.7038 138.211 10.0259 137.675 9.61166C137.138 9.19746 135.974 8.98964 134.181 8.98821C134.155 9.57152 134.143 10.5131 134.145 11.8131C134.145 13.4971 134.204 14.5662 134.323 15.0206C134.387 15.2484 134.496 15.461 134.643 15.6457C134.791 15.8303 134.975 15.9833 135.183 16.0955C135.639 16.3649 136.409 16.4989 137.494 16.4975C140.6 16.4975 142.606 15.4283 143.513 13.29C143.625 13.0277 143.728 12.8944 143.857 12.8944C143.986 12.8944 144.047 12.9826 144.047 13.1588C144.045 13.2648 144.025 13.3696 143.986 13.4684C143.939 13.621 143.823 14.1864 143.64 15.1689C143.599 15.3839 143.449 15.9987 143.184 17.0349L138.171 17.0242C137.455 17.0242 136.4 16.9941 135.007 16.9339C133.614 16.8737 132.381 16.8422 131.309 16.8393C130.234 16.8393 129.675 16.8114 129.628 16.7727C129.607 16.7575 129.589 16.7379 129.577 16.7153C129.564 16.6926 129.556 16.6674 129.555 16.6415C129.555 16.4824 129.686 16.4008 129.95 16.4008C130.836 16.4008 131.419 16.1657 131.698 15.6956C131.978 15.2255 132.121 14.079 132.128 12.2559L132.115 9.80515L132.152 7.50915C132.152 7.04623 132.126 6.17125 132.074 4.88424C132.023 3.59722 131.975 2.86198 131.93 2.67853C131.865 2.46339 131.735 2.27352 131.558 2.13464C131.356 1.95405 130.913 1.77346 130.213 1.58858C129.998 1.53483 129.901 1.4467 129.901 1.32631C129.901 1.20592 130.041 1.11133 130.331 1.11133L132.773 1.24246C133.633 1.28403 135.75 1.30408 139.126 1.30265C141.318 1.30838 142.438 1.31484 142.486 1.322Z" fill="white"/>
<path d="M159.245 7.62548C159.633 7.15539 160.164 6.44236 160.836 5.48641C161.272 4.89881 161.672 4.28496 162.033 3.64833C162.149 3.4215 162.215 3.17205 162.225 2.91739C162.229 2.75329 162.188 2.5912 162.106 2.4487C162.025 2.3062 161.906 2.18874 161.762 2.10908C161.461 1.92391 161.118 1.81541 160.765 1.79305C160.421 1.76725 160.249 1.68126 160.249 1.52863C160.249 1.37599 160.496 1.31364 160.991 1.31364H166.006C166.212 1.30418 166.418 1.31642 166.621 1.35019C166.658 1.36236 166.69 1.38705 166.71 1.42001C166.731 1.45296 166.74 1.49213 166.735 1.53078C166.735 1.66622 166.584 1.74576 166.279 1.74576C165.54 1.78089 164.829 2.04035 164.241 2.48958C163.613 2.95108 162.738 3.94286 161.614 5.46492C160.49 6.98699 159.864 7.87557 159.735 8.13068C162.057 11.6019 163.696 13.8535 164.654 14.8854C165.611 15.9173 166.493 16.4483 167.298 16.4784C167.584 16.4934 167.728 16.5816 167.728 16.7407C167.728 16.8998 167.578 16.9556 167.274 16.9556C167.148 16.9556 166.819 16.9384 166.292 16.9083C165.544 16.8589 164.841 16.8353 164.187 16.8353C163.069 16.8353 162.004 16.8596 160.991 16.9083C160.864 16.9083 160.735 16.9191 160.608 16.9191C160.225 16.9191 160.034 16.8524 160.034 16.7041C160.034 16.5558 160.137 16.4655 160.346 16.4655C161.359 16.4655 161.866 16.1502 161.866 15.5196C161.866 14.8574 160.692 12.9943 158.346 9.93008C158.093 10.1709 157.453 11.0351 156.427 12.5227C155.4 14.0104 154.888 14.947 154.889 15.3325C154.889 15.6034 155.081 15.842 155.47 16.0506C155.93 16.2788 156.433 16.4091 156.947 16.4332C157.241 16.4569 157.39 16.5343 157.39 16.6676C157.39 16.8009 157.25 16.8825 156.97 16.8825L156.528 16.8696L154.088 16.8095C152.654 16.8095 151.668 16.8374 151.129 16.8933C150.796 16.8933 150.629 16.8159 150.629 16.6611C150.629 16.5063 150.751 16.4461 150.998 16.4461C151.511 16.4522 152.018 16.3497 152.488 16.1452C152.922 15.9577 153.31 15.6782 153.625 15.3261C153.932 14.9778 154.612 14.0591 155.665 12.57C156.719 11.0809 157.448 10.0232 157.854 9.39692C155.109 5.38394 153.42 3.12234 152.785 2.61212C152.176 2.10921 151.423 1.81327 150.635 1.76725C150.42 1.7522 150.312 1.67481 150.312 1.53507C150.312 1.39533 150.51 1.32009 150.91 1.32009H157.209C157.391 1.30806 157.575 1.32255 157.753 1.36309C157.785 1.38127 157.811 1.40864 157.827 1.44162C157.843 1.47459 157.849 1.51165 157.843 1.54797C157.845 1.5844 157.835 1.62046 157.816 1.65149C157.797 1.68253 157.769 1.70711 157.736 1.7221C157.477 1.78406 157.211 1.81439 156.945 1.8124C156.694 1.82844 156.453 1.91736 156.252 2.06823C156.168 2.12442 156.097 2.19987 156.047 2.28842C155.997 2.37697 155.969 2.47611 155.964 2.57773C155.964 2.80991 156.347 3.5129 157.112 4.68669C157.762 5.70936 158.474 6.69083 159.245 7.62548Z" fill="white"/>
<path d="M180.341 1.83953C179.718 1.80657 179.279 1.7908 179.024 1.79223C177.304 1.79223 176.055 2.15053 175.276 2.86713C174.498 3.58374 174.047 4.22438 173.922 4.78906C173.883 4.98899 173.776 5.09004 173.602 5.09004C173.56 5.08641 173.519 5.07424 173.482 5.05427C173.445 5.0343 173.413 5.00696 173.387 4.97394C173.467 3.68394 173.623 2.39976 173.853 1.12795L174.584 1.11719C175.206 1.11719 176.04 1.14872 177.084 1.21178C178.208 1.27627 179.928 1.30852 182.244 1.30852C184.622 1.30852 186.169 1.28057 186.888 1.22468C187.541 1.16018 188.438 1.12795 189.579 1.12795C189.677 1.72217 189.741 2.32151 189.77 2.92303C189.818 3.63462 189.867 4.13337 189.914 4.4279C189.924 4.49917 189.928 4.571 189.927 4.64288C189.927 4.83421 189.843 4.93096 189.676 4.93096C189.628 4.93221 189.581 4.9237 189.537 4.90595C189.493 4.88819 189.453 4.86158 189.42 4.82776C189.251 4.61378 189.097 4.38821 188.96 4.15271C188.621 3.59054 188.185 3.09391 187.67 2.68656C187.227 2.35469 186.711 2.13356 186.165 2.04161C185.613 1.94559 184.5 1.88181 182.824 1.85028C182.728 3.05417 182.68 4.43005 182.68 5.97791C182.68 11.1002 182.79 14.1199 183.009 15.0372C183.229 15.9544 184.013 16.4131 185.361 16.4131C185.688 16.4131 185.851 16.4819 185.851 16.628C185.851 16.7742 185.697 16.8667 185.385 16.8667H178.026C177.835 16.8667 177.738 16.7914 177.738 16.6388C177.738 16.4862 177.925 16.4238 178.301 16.4238C178.859 16.4491 179.405 16.2581 179.825 15.8907C180.224 15.5121 180.463 14.9966 180.496 14.4481C180.556 13.8419 180.586 12.0912 180.586 9.19617C180.591 6.70096 180.509 4.24875 180.341 1.83953Z" fill="white"/>
</svg>
