<svg id="Layer_1" enable-background="new 0 0 512 512" height="512" viewBox="0 0 512 512" width="512" xmlns="http://www.w3.org/2000/svg"><g><path d="m119.984 470.793 114.48 40.254c7.098.618 14.277.953 21.536.953 7.271 0 14.463-.335 21.573-.956l114.478-40.273c65.689-43.946 108.949-118.803 108.949-203.771 0-135.31-109.69-245-245-245s-245 109.69-245 245c0 84.982 43.275 159.85 108.984 203.793z" fill="#024788"/><path d="m180.689 280.276c9.146 2.659 23.977 8.496 40.967 21.061 22.19 16.41 33.364 46.186 34.279 72.774.024 0 .048.001.073.001.019 0 .038-.001.057-.001.915-26.588 12.089-56.363 34.279-72.774 14.1-10.428 26.701-16.212 35.812-19.402-1.355-5.484-1.214-12.987 3.641-16.102 2.988-1.918 7.103-1.776 11.142-2.483 8.981-1.572 16.727-7.728 19.737-15.684 3.24-8.568.44-18.965-6.513-24.185-.906-.68-1.869-1.283-2.8-1.866-5.979-3.741-6.656-5.381-3.992-12.851 1.105-3.101 2.248-6.307 1.579-9.711-1.18-5.996-6.592-8.404-11.825-10.733-5.461-2.43-7.225-3.346-10.028-6.765-2.912-3.552-5.521-5.69-11.593-5.69-7.998 0-16.76 4.03-20.628-.963-1.896-2.449-1.575-6.004-1.236-9.767 1.087-12.072-2.05-18.799-2.852-29.237-1.049-13.658 3.695-27.496 12.635-37.789-14.83-5.25-30.788-8.117-47.417-8.117-12.418 0-24.462 1.598-35.942 4.591-1.382 2.496-2.587 5.109-3.445 7.857-2.659 8.519-1.337 17.298 3.45 22.911 5.487 6.433 15.265 9.103 16.741 16.125.835 3.972-1.346 7.876-3.655 12.011-2.334 4.178-4.747 8.498-4.403 13.44.444 6.381 5.102 10.667 9.606 14.811 10.796 9.936 7.649 11.314 9.653 16.659 2.329 6.211 9.638 8.368 11.999 13.123 5.05 10.177-14.121 31.851-45.965 35.245-4.924.508-10.02.918-13.798 4.19-3.89 3.367-2.443 5.119-12.191 7.991-2.413.711-4.908 1.446-7.196 2.736-5.562 3.139-8.274 9.444-8.15 15.678 2.474 1.11 5.084 2.075 7.979 2.916z" fill="#2ebcf6"/><path d="m290.344 301.337c1.578-1.167 3.133-2.267 4.67-3.32-52.377-4.609-58.771-54.867-58.771-54.867s-.201-.726-.679-1.98c-6.241 2.711-13.473 4.737-21.518 5.595-4.924.508-10.02.918-13.798 4.19-3.89 3.367-2.443 5.119-12.19 7.991-2.413.711-4.908 1.446-7.196 2.736-5.562 3.139-8.274 9.444-8.15 15.678 2.472 1.11 5.081 2.075 7.977 2.917 9.146 2.659 23.977 8.496 40.966 21.061 22.19 16.411 33.364 46.185 34.279 72.774.024 0 .048.001.073.001.019 0 .038-.001.058-.001.915-26.589 12.089-56.364 34.279-72.775z" fill="#2a9ddd"/><path d="m128.247 245.872c24.458 17.534 32.985 26.893 46.454 32.339-.399-5.838 1.97-11.921 7.121-14.827 5.02-2.832 11.534-2.862 15.783-6.755 1.413-1.295 2.474-2.943 3.922-4.197 3.399-2.942 8.256-3.247 12.726-3.724 16.823-1.793 33.907-8.659 44.05-22.2 3.419-4.564 5.993-10.748 3.458-15.856-2.638-5.314-9.837-7.385-11.92-12.94-.652-1.738-.714-3.639-1.174-5.438-2.634-10.291-17.227-14.884-17.964-25.482-.636-9.141 9.906-16.751 8.021-25.718-1.692-8.049-11.829-10.733-17.166-16.991-4.807-5.635-5.278-13.99-3.071-21.061 1-3.205 2.473-6.208 4.193-9.089-62.376 14.998-108.732 71.14-108.732 138.118 0 1.281.019 2.558.053 3.831 4.629 2.719 9.442 6.154 14.246 9.99z" fill="#85d249"/><path d="m181.822 263.384c5.02-2.832 11.533-2.861 15.783-6.755 1.413-1.295 2.474-2.943 3.922-4.197 3.399-2.942 8.256-3.248 12.726-3.724 7.492-.798 15.03-2.61 21.989-5.562-.028-.1-5.298-19.149-27.24-31.956-22-12.842 14-35.825-17.717-57.792-18.267-12.652-16.461-29.297-11.644-41.141-39.5 25.229-65.694 69.45-65.694 119.796 0 1.281.019 2.558.053 3.831 4.63 2.719 9.443 6.153 14.247 9.989 24.458 17.534 32.985 26.893 46.454 32.339-.399-5.839 1.97-11.922 7.121-14.828z" fill="#60b550"/><path d="m291.882 162.671c-.296 4.608-1.377 9.776 1.45 13.427 6.345 8.192 21.211-2.465 29.469 3.794 1.803 1.367 2.992 3.383 4.607 4.967 6.017 5.902 17.999 6.302 19.626 14.572 1.22 6.203-5.031 12.603-2.507 18.4 1.501 3.45 5.455 4.954 8.464 7.213 6.492 4.872 8.729 14.339 5.858 21.931s-10.251 13.051-18.246 14.451c-4.033.706-8.415.552-11.861 2.763-5.63 3.613-6.088 11.734-4.479 18.229.015.062.033.123.048.185 2.589-.959 4.945-1.728 7-2.326 17.388-5.056 24.568-14.422 52.442-34.405 4.807-3.839 9.625-7.276 14.258-9.996.033-1.271.057-2.545.057-3.824 0-62.563-40.444-115.679-96.612-134.633-8.929 10.62-13.679 24.77-12.615 38.629.685 8.923 3.615 17.691 3.041 26.623z" fill="#85d249"/><path d="m270.784 65.74c-2.393-1.432-3.657-4.197-3.152-6.941 2.384-12.957 12.648-49.59 52.59-50.51 25.758-.593 38.009-4.555 43.802-7.923 1.966-1.143 4.367.552 3.971 2.791-2.163 12.218-7.898 36.322-21.266 52.681-17.688 21.644-50.099 25.371-75.945 9.902z" fill="#85d249"/><path d="m458.238 145.945c-10.604-.239-18.291 8.516-19.677 19.031-3.456 26.215-11.411 74.016-11.411 74.016l-.002.004c-.887-2.82-2.636-5.531-5.526-8.012-8.85-7.599-24.583.602-40.194 13.068-27.366 19.619-34.416 28.815-51.487 33.778-8.98 2.611-23.541 8.341-40.221 20.677-27.431 20.287-37.733 61.38-32.346 90.829 1.596 8.724 9.298 33.052 9.654 41.914.002.055.004.11.007.164.094 2.284.174 4.224.243 5.903.247-.068.499-.126.758-.167l102.477-16.195-.644-15.427c-.143-3.412 1.709-6.604 4.758-8.143 17.349-8.755 47.182-36.782 74.003-67.953 21.293-24.747 29.458-113.121 29.177-161.403-.072-12.006-7.606-21.814-19.569-22.084z" fill="#fbbc8d"/><path d="m369.867 405.53c-.143-3.412 1.709-6.604 4.758-8.143-98.905 21.128-114.6-51.825-114.6-51.825l-.306.105c-4.014 14.949-4.76 30.477-2.346 43.67 1.596 8.724 9.298 33.052 9.654 41.914.002.055.004.11.007.164.094 2.284.174 4.224.243 5.903.247-.068.499-.126.758-.167l102.476-16.195z" fill="#fca870"/><path d="m53.762 145.945c10.604-.239 18.291 8.516 19.677 19.031 3.456 26.215 11.412 74.016 11.412 74.016l.002.004c.887-2.82 2.636-5.531 5.526-8.012 8.85-7.599 24.583.602 40.194 13.068 27.366 19.619 34.416 28.815 51.487 33.778 8.98 2.611 23.54 8.341 40.221 20.677 27.431 20.287 37.733 61.38 32.346 90.829-1.596 8.724-9.298 33.052-9.654 41.914-.002.055-.005.11-.007.164-.094 2.284-.174 4.224-.243 5.903-.247-.068-.499-.126-.758-.167l-102.476-16.195.644-15.427c.143-3.412-1.709-6.604-4.758-8.143-17.35-8.755-47.183-36.782-74.003-67.953-21.293-24.747-29.458-113.121-29.176-161.403.069-12.006 7.603-21.814 19.566-22.084z" fill="#fbbc8d"/><path d="m142.137 405.53c.142-3.412-1.709-6.604-4.758-8.143 98.905 21.128 114.6-51.825 114.6-51.825l.306.105c4.014 14.949 4.76 30.477 2.347 43.67-1.596 8.724-9.298 33.052-9.654 41.914-.002.055-.005.11-.007.164-.094 2.284-.174 4.224-.243 5.903-.247-.068-.499-.126-.758-.167l-102.477-16.195z" fill="#fca870"/><path d="m428.307 238.992h-1.158l-.003.003c-.887-2.82-2.636-5.531-5.526-8.012-3.288-2.823-7.527-3.462-12.356-2.515 0 0-23.553 14.603-8.269 29.887 8.806 8.805 18.708 1.562 25.521-6.16 1.968-6.062 2.034-10.667 1.788-13.2z" fill="#fcd7c3"/><path d="m443.314 231.71c-.665-2.304-3.761-11.77-11.656-20.521-2.465 15.523-4.509 27.803-4.509 27.803l-.003.004c.67 6.915-.919 29.207-37.431 54.674-41.911 29.233-42.008 29.791-42.762 34.13-1.521 8.771 9.411 13.914 15.26 7.428 1.223-1.04 7.652-6.183 37.605-27.075 53.705-37.457 44.661-72.667 43.496-76.443z" fill="#fca870"/><path d="m83.693 238.992h1.158l.002.003c.887-2.82 2.636-5.531 5.526-8.012 3.288-2.823 7.527-3.462 12.356-2.515 0 0 23.553 14.603 8.269 29.887-8.805 8.805-18.707 1.562-25.521-6.16-1.968-6.062-2.034-10.667-1.788-13.2z" fill="#fcd7c3"/><path d="m68.686 231.71c.665-2.304 3.761-11.77 11.656-20.521 2.465 15.523 4.509 27.803 4.509 27.803l.003.004c-.67 6.915.919 29.207 37.431 54.674 41.911 29.233 42.008 29.791 42.762 34.13 1.521 8.771-9.411 13.914-15.26 7.428-1.223-1.04-7.652-6.183-37.605-27.075-53.705-37.457-44.662-72.667-43.496-76.443z" fill="#fca870"/><path d="m387.262 422.961c-.594-3.757-4.121-6.322-7.878-5.727l-111.444 17.612c-3.757.594-6.322 4.122-5.728 7.878l11.655 68.624c44.821-3.23 86.294-18.523 121.208-42.641z" fill="#2ebcf6"/><path d="m319.481 432.724c-.397-2.51.621-4.913 2.458-6.412l-54 8.534c-3.757.594-6.322 4.122-5.728 7.878l11.655 68.624c19.775-1.425 38.896-5.202 57.092-11.044z" fill="#2a9ddd"/><path d="m244.097 434.846-111.444-17.612c-3.757-.594-7.285 1.97-7.878 5.727l-7.817 45.768c34.916 24.112 76.39 39.397 121.211 42.621l11.656-68.626c.594-3.757-1.971-7.285-5.728-7.878z" fill="#2ebcf6"/><path d="m244.097 434.846-49.744-7.861c1.708 1.507 2.636 3.824 2.255 6.239l-11.603 68.315c17.013 5.144 34.807 8.491 53.164 9.811l11.656-68.626c.594-3.757-1.971-7.285-5.728-7.878z" fill="#2a9ddd"/><path d="m316.493 41.175s7.259-10.895-3.991-14.145c-11.046-3.191-7.894-15.81-7.776-16.268-27.228 8.553-35.055 36.951-37.094 48.037-.505 2.743.759 5.508 3.152 6.94 19.733 11.81 43.286 12.418 61.198 2.419-19.206-7.913-15.489-26.983-15.489-26.983z" fill="#60b550"/><g><path d="m261.633 108.969c-4.539 0-8.219-3.679-8.219-8.219v-14.92c0-14.365 5.81-28.258 15.939-38.115 20.935-20.375 44.069-21.5 57.893-26.796 4.238-1.627 8.992.496 10.616 4.733 1.624 4.238-.495 8.991-4.734 10.615-15.376 5.895-34.897 6.28-52.31 23.227-6.969 6.783-10.965 16.381-10.965 26.336v14.92c-.001 4.539-3.681 8.219-8.22 8.219z" fill="#a3ea6e"/></g><path d="m252.482 65.74c2.393-1.432 3.657-4.197 3.153-6.941-2.384-12.957-12.649-49.59-52.59-50.51-25.759-.593-38.009-4.555-43.802-7.923-1.966-1.143-4.367.552-3.971 2.791 2.163 12.218 7.898 36.322 21.266 52.681 17.687 21.644 50.098 25.371 75.944 9.902z" fill="#85d249"/><path d="m206.773 41.175s-7.259-10.895 3.991-14.145c11.046-3.191 7.894-15.81 7.776-16.268 27.228 8.553 35.055 36.951 37.094 48.037.505 2.743-.759 5.508-3.152 6.94-19.733 11.81-43.286 12.418-61.198 2.419 19.206-7.913 15.489-26.983 15.489-26.983z" fill="#60b550"/><g><path d="m261.633 108.969c4.539 0 8.219-3.679 8.219-8.219v-14.92c0-14.365-5.81-28.258-15.939-38.115-20.935-20.375-44.069-21.5-57.893-26.796-4.238-1.627-8.992.496-10.616 4.733-1.624 4.238.495 8.991 4.734 10.615 15.376 5.895 34.897 6.28 52.31 23.227 6.969 6.783 10.965 16.381 10.965 26.336v14.92c.001 4.539 3.681 8.219 8.22 8.219z" fill="#a3ea6e"/></g><path d="m319.715 105.049c-6.806 13.352-17.243 40.315 4.287 48.481 28.133 10.671 27.689 61.805 70.029 44.769-9.956-40.854-37.578-74.786-74.316-93.25z" fill="#a3ea6e"/></g></svg>