<svg id="Icons" height="512" viewBox="0 0 60 60" width="512" xmlns="http://www.w3.org/2000/svg"><path d="m36 59h-22a2.981 2.981 0 0 1 -2.74-1.78l-.26-1.22v-10a10.994 10.994 0 0 1 11-11h8a10.973 10.973 0 0 1 5 1.2z" fill="#0c70dc"/><path d="m29 30v5a3 3 0 0 1 -6 0v-5z" fill="#e2ac7f"/><path d="m39 11v5l-1 1h-24l-1-1v-5a10 10 0 0 1 10-10h9.58a1.42 1.42 0 0 1 1.29 2 1.271 1.271 0 0 1 -.29.42l-1.58 1.58h1a6 6 0 0 1 6 6z" fill="#634a39"/><path d="m59 55h-24v-20.231a.76.76 0 0 1 .75-.769h22.5a.76.76 0 0 1 .75.769z" fill="#d6dbe3"/><ellipse cx="47" cy="44" fill="#f0f2f5" rx="5" ry="4"/><path d="m59 54v4a1 1 0 0 1 -1 1h-23l-1-5z" fill="#b9bfcc"/><path d="m26.636 10.723c1.378 1.235 3.723 1.8 5.579 2.059a3.239 3.239 0 0 1 2.785 3.218 2 2 0 0 1 2-2 2 2 0 0 1 2 2v3a3 3 0 0 1 -3 3 10 10 0 0 1 -10 10 10 10 0 0 1 -10-10 3 3 0 0 1 -3-3v-3a2 2 0 0 1 2-2 2 2 0 0 1 2 2 3.239 3.239 0 0 1 2.785-3.215c1.856-.259 4.2-.824 5.579-2.059a.963.963 0 0 1 1.272-.003z" fill="#eebd91"/><path d="m7 47a6 6 0 0 1 6 6v5a1 1 0 0 1 -1 1h-11a0 0 0 0 1 0 0v-6a6 6 0 0 1 6-6z" fill="#d6dbe3" transform="matrix(-1 0 0 -1 14 106)"/><path d="m35 54v5h-7a1 1 0 0 1 -1-1v-3a1 1 0 0 1 1-1z" fill="#ccd0da"/><path d="m33.87 3a1.271 1.271 0 0 1 -.29.42l-1.58 1.58h-3a1 1 0 0 1 0-2z" fill="#4c3729"/><path d="m7 56a3 3 0 0 1 -3-3v-2a1 1 0 0 1 2 0v2a1 1 0 0 0 1 1 1 1 0 0 1 0 2z" fill="#f4f4f4"/><path d="m26 28a5.956 5.956 0 0 1 -4.8-2.4 1 1 0 1 1 1.6-1.2 4 4 0 0 0 6.4 0 1 1 0 1 1 1.6 1.2 5.957 5.957 0 0 1 -4.8 2.4z" fill="#c69c79"/><path d="m18 51v2a4 4 0 0 1 -4 4h-2.54a5.489 5.489 0 0 0 1.19-2h1.35a2.006 2.006 0 0 0 2-2v-2a2.006 2.006 0 0 0 -2-2h-1v-2h1a4 4 0 0 1 4 4z" fill="#d6dbe3"/><g fill="#bb8c76"><path d="m3 44a1 1 0 0 1 -1-1 3.348 3.348 0 0 1 .668-2.055 1.511 1.511 0 0 0 0-1.89 3.348 3.348 0 0 1 -.668-2.055 1 1 0 0 1 2 0 1.4 1.4 0 0 0 .332.945 3.495 3.495 0 0 1 0 4.11 1.4 1.4 0 0 0 -.332.945 1 1 0 0 1 -1 1z"/><path d="m8 41a1 1 0 0 1 -1-1 3.348 3.348 0 0 1 .668-2.055 1.511 1.511 0 0 0 0-1.89 3.348 3.348 0 0 1 -.668-2.055 1 1 0 0 1 2 0 1.4 1.4 0 0 0 .332.945 3.495 3.495 0 0 1 0 4.11 1.4 1.4 0 0 0 -.332.945 1 1 0 0 1 -1 1z"/></g></svg>