<svg width="514" height="103" viewBox="0 0 514 103" fill="none" xmlns="http://www.w3.org/2000/svg">
<path d="M46.8342 26.3601C47.5692 25.7886 48.2168 25.1131 48.7566 24.3549C48.8093 24.1616 48.92 23.989 49.0739 23.8605C49.2278 23.7319 49.4175 23.6535 49.6174 23.6359C50.0019 23.6359 50.2429 24.0198 50.2917 24.7417L50.966 35.3062C51.0142 35.6732 51.0142 36.0449 50.966 36.4119C50.966 36.5552 50.7737 36.6039 50.5327 36.6039C50.2917 36.6039 49.8584 36.1713 49.4739 35.3062C48.2308 32.2672 46.3082 29.5521 43.8531 27.3685C41.7027 25.4247 38.9149 24.3326 36.0143 24.2977C33.5546 24.2933 31.1663 25.1224 29.24 26.6495C27.0351 28.4332 25.3702 30.7936 24.4311 33.4672C23.2762 36.4836 22.7046 39.6913 22.7469 42.9203C22.5205 48.0095 24.2197 52.9975 27.5069 56.8937C28.7756 58.5097 30.3836 59.8287 32.2177 60.7576C34.0519 61.6865 36.0676 62.2029 38.1232 62.2705C40.748 62.2749 43.3008 61.4139 45.3853 59.8213C47.4844 58.2883 49.2105 56.3026 50.4351 54.0119C50.7221 53.3874 51.0606 53.101 51.3476 53.101C51.4404 53.0999 51.5324 53.1181 51.6177 53.1545C51.7031 53.1909 51.7799 53.2446 51.8433 53.3122C51.9068 53.3798 51.9554 53.4599 51.9861 53.5473C52.0169 53.6347 52.029 53.7276 52.0218 53.82C51.5636 55.26 50.778 56.5747 49.7264 57.6614C48.1074 59.7099 46.0326 61.3537 43.6666 62.4624C41.1566 63.7077 38.3896 64.3493 35.5868 64.3358C32.2093 64.3239 28.8936 63.4301 25.969 61.7434C22.9066 60.1369 20.368 57.6899 18.6524 54.6908C16.8239 51.4233 15.9101 47.7246 16.007 43.983C15.9452 40.2202 16.8385 36.503 18.6037 33.1778C20.2582 30.0243 22.7992 27.4218 25.9145 25.6898C28.8575 23.9508 32.21 23.0226 35.6298 23C37.5183 23.009 39.396 23.2838 41.2076 23.8164C43.1746 24.4462 45.0626 25.2997 46.8342 26.3601V26.3601Z" fill="white"/>
<path d="M85.6498 23H87.0442C90.5543 30.7783 93.6808 38.717 96.4238 46.8161C97.8743 51.3357 99.6424 55.7476 101.715 60.0189C102.196 60.8221 102.87 61.4929 103.676 61.9706C104.482 62.4482 105.395 62.7177 106.331 62.7546C107.006 62.7546 107.341 63.041 107.341 63.4278C107.341 63.8145 107.198 63.8603 106.859 63.8603H106.426C104.55 63.7171 102.194 63.6197 99.3074 63.6197C96.4683 63.5407 93.627 63.6048 90.7943 63.8116C90.1688 63.8116 89.8331 63.6684 89.8331 63.2845C89.8331 62.9007 90.0741 62.852 90.5074 62.8033C91.7465 62.768 92.9621 62.4568 94.0653 61.8923C94.3924 61.6823 94.6581 61.3897 94.8355 61.044C95.0129 60.6984 95.0956 60.3122 95.0753 59.9244C94.6931 57.6849 94.0637 55.4944 93.1988 53.3931L91.4198 48.1596L77.2801 48.3515C75.7807 51.7374 74.7145 55.2984 74.1068 58.9504C74.1014 59.4881 74.2414 60.0172 74.512 60.4821C74.7827 60.9469 75.174 61.3302 75.6447 61.5916C76.5756 62.1682 77.6313 62.5139 78.7234 62.5999C79.4924 62.5999 79.8309 62.8864 79.8309 63.2731C79.8309 63.6598 79.7334 63.5595 79.4952 63.7056C76.273 63.5624 74.3019 63.5137 73.6276 63.5137C70.262 63.5137 67.9522 63.5137 66.7414 63.6111C66.0671 63.6111 65.7802 63.4192 65.7802 63.0382C65.7802 62.6572 66.0671 62.5111 66.641 62.4137C67.875 62.1867 69.0238 61.6288 69.9645 60.7997C70.9051 59.9706 71.6021 58.9016 71.9806 57.7072C73.2316 54.8741 75.154 49.738 77.7507 42.3416C80.1666 35.6757 82.7633 29.1932 85.6498 23ZM84.3988 29.7232C81.8477 35.1647 79.6435 40.7618 77.7995 46.4809C79.8673 46.3854 81.3583 46.3377 82.2727 46.3377L90.8345 46.4809C90.0656 44.3669 89.0068 41.5825 87.6611 38.0791C86.0342 33.8854 84.8779 31.1153 84.3988 29.7232Z" fill="white"/>
<path d="M146.053 43.2153C148.28 44.03 150.288 45.3477 151.921 47.0653C153.228 48.8832 154.07 50.9926 154.374 53.2098C154.657 55.8653 155.636 58.3995 157.212 60.5575C158.486 61.8044 160.188 62.5211 161.972 62.5627C162.5 62.5627 162.79 62.8033 162.79 63.1356C162.79 63.4679 162.503 63.6627 161.828 63.6627C158.387 63.8085 154.94 63.6166 151.536 63.0897C150.334 62.7059 149.419 60.6405 148.842 56.8965C148.522 54.178 147.958 51.4937 147.158 48.8757C146.669 47.3012 145.671 45.9331 144.32 44.9856C142.46 43.9497 140.336 43.4825 138.212 43.6421C137.002 43.6585 135.796 43.7706 134.605 43.9773C134.507 45.2262 134.462 46.5697 134.462 47.9132C134.462 53.0981 134.559 56.4611 134.703 57.9965C134.709 59.2377 135.171 60.4333 136.002 61.3567C137.031 62.1485 138.312 62.5414 139.609 62.4624C140.329 62.4624 140.716 62.6543 140.716 62.9895C140.716 63.3246 140.283 63.614 139.371 63.614H124.27C123.409 63.614 122.97 63.422 122.97 62.9895C122.97 62.6543 123.306 62.4624 123.98 62.4624C125.103 62.5639 126.23 62.3125 127.202 61.7434C127.888 61.164 128.387 60.3958 128.637 59.5348C129.079 57.7941 129.257 55.9972 129.165 54.2038V38.6062C129.221 35.4171 129.109 32.2273 128.829 29.05C128.792 27.9132 128.39 26.8186 127.681 25.9276C126.553 25.1652 125.242 24.7172 123.883 24.6299C123.449 24.6299 123.257 24.3893 123.257 24.1487C123.257 23.9081 123.69 23.6674 124.557 23.6674L142.541 23.2893C146.366 22.9762 150.183 23.9756 153.361 26.1224C154.408 26.9578 155.253 28.0167 155.836 29.2214C156.418 30.426 156.723 31.7457 156.727 33.0833C156.742 34.7632 156.275 36.4122 155.381 37.8356C154.616 39.1365 153.522 40.2133 152.208 40.958C150.222 41.8784 148.164 42.6334 146.053 43.2153V43.2153ZM134.559 42.4476C137.496 42.461 140.428 42.1847 143.31 41.6226C145.293 41.1969 147.073 40.1135 148.36 38.5489C149.707 36.9918 150.424 34.9884 150.369 32.9315C150.411 30.7306 149.601 28.5981 148.108 26.9789C147.135 26.0556 145.976 25.3508 144.708 24.9121C143.44 24.4733 142.093 24.3107 140.757 24.4352C138.727 24.4334 136.704 24.6748 134.731 25.1542C134.49 30.7229 134.347 35.1802 134.347 38.4544C134.367 39.5658 134.413 40.9122 134.559 42.4476Z" fill="white"/>
<path d="M199.726 42.0609C202.829 42.7499 205.717 44.1834 208.141 46.2374C209.04 47.0587 209.753 48.0615 210.234 49.1791C210.715 50.2968 210.952 51.5038 210.93 52.72C210.907 54.1476 210.587 55.5549 209.991 56.8527C209.395 58.1505 208.535 59.3106 207.467 60.2595C206.087 61.5074 204.467 62.4619 202.706 63.0647C200.945 63.6675 199.08 63.906 197.224 63.7658C196.363 63.7658 195.011 63.7658 193.135 63.6226L191.164 63.5252C184.912 63.5252 180.728 63.5252 178.516 63.7171C177.796 63.7171 177.411 63.5252 177.411 63.1442C177.404 63.0504 177.428 62.9569 177.48 62.8785C177.532 62.8001 177.609 62.7414 177.698 62.7116C178.473 62.5053 179.26 62.3446 180.054 62.2304C180.804 62.1254 181.489 61.7493 181.979 61.1733C182.595 60.1535 182.958 59.0015 183.038 57.8132C183.31 55.3257 183.438 52.8246 183.422 50.3223C183.422 47.0567 183.422 44.4156 183.52 42.3989C183.618 40.3822 183.615 38.8468 183.615 37.7898C183.656 35.1108 183.527 32.4318 183.23 29.769C183.168 28.4257 182.807 27.1133 182.171 25.9276C181.393 25.2194 180.386 24.813 179.334 24.7818C178.852 24.6844 178.516 24.4953 178.516 24.1573C178.516 23.8193 178.803 23.5844 179.377 23.5844L184.909 23.6818C186.736 23.6818 188.421 23.6818 189.959 23.5844C193.516 23.3924 195.777 23.2979 196.845 23.2979C199.995 23.1502 203.11 24.008 205.739 25.7471C206.799 26.5099 207.653 27.5235 208.224 28.6969C208.795 29.8703 209.065 31.1669 209.01 32.4703C209.037 34.5478 208.301 36.5633 206.942 38.1364C204.943 40.0809 202.446 41.4386 199.726 42.0609V42.0609ZM189.336 43.4932C189.01 44.333 188.894 45.2398 189 46.1343L188.759 55.5444C188.671 57.4042 188.752 59.268 189 61.1132C189.415 61.6394 190.02 61.9835 190.685 62.0728C192.246 62.4167 193.848 62.5458 195.445 62.4567C197.056 62.5222 198.663 62.2439 200.159 61.6403C201.551 60.9131 202.715 59.8169 203.524 58.472C204.591 56.7805 205.112 54.8026 205.016 52.8059C205.127 51.4571 204.923 50.1012 204.423 48.8436C203.922 47.586 203.138 46.4609 202.13 45.5557C199.606 43.8734 196.597 43.0681 193.568 43.264C192.271 43.3098 190.831 43.3585 189.339 43.5018L189.336 43.4932ZM189.336 25.4463C189.144 29.9122 189.049 33.513 189.049 36.2028V40.6687C189.002 41.0728 189.104 41.4802 189.336 41.8145C189.767 42.0283 190.252 42.1119 190.73 42.0552C193.944 42.2037 197.136 41.4727 199.964 39.9411C201.14 39.1985 202.09 38.1475 202.709 36.9028C203.329 35.6582 203.594 34.2676 203.476 32.8828C203.576 31.7018 203.393 30.514 202.942 29.4179C202.49 28.3218 201.783 27.3491 200.879 26.5807C199.035 25.1685 196.757 24.4386 194.435 24.5154C192.695 24.5361 190.972 24.8508 189.339 25.4463H189.336Z" fill="white"/>
<path d="M228.774 43.4559C228.87 40.3057 229.729 37.2255 231.276 34.4783C232.93 31.1759 235.437 28.3742 238.538 26.363C241.744 24.2456 245.514 23.1415 249.358 23.1948C251.973 23.1276 254.572 23.6311 256.973 24.6701C259.373 25.7091 261.518 27.2586 263.257 29.2104C266.771 32.898 268.738 37.7898 268.751 42.8801C268.755 48.3847 266.576 53.6669 262.691 57.5726C260.866 59.6443 258.613 61.2965 256.087 62.4156C253.56 63.5347 250.821 64.094 248.058 64.0551C245.506 64.1008 242.972 63.6212 240.614 62.6464C238.256 61.6716 236.124 60.2223 234.352 58.389C232.47 56.3977 231.008 54.0505 230.05 51.4858C229.092 48.9211 228.658 46.1907 228.774 43.4559V43.4559ZM235.459 42.4476C235.488 45.8647 236.006 49.26 236.997 52.5309C237.667 55.5161 239.349 58.1791 241.757 60.0705C243.754 61.5745 246.182 62.3988 248.684 62.4223C250.658 62.4181 252.594 61.8745 254.281 60.8505C255.968 59.8265 257.343 58.361 258.255 56.6129C260.708 52.5795 261.959 47.9326 261.865 43.2153C261.948 38.6147 260.677 34.0908 258.21 30.2044C257.249 28.5285 255.862 27.1354 254.19 26.1656C252.517 25.1959 250.618 24.684 248.684 24.6815C247.302 24.6405 245.927 24.8836 244.644 25.3956C243.36 25.9076 242.196 26.6776 241.223 27.6578C239.251 29.6415 237.771 32.0588 236.902 34.7161C236.032 37.2046 235.561 39.815 235.508 42.4505L235.459 42.4476Z" fill="white"/>
<path d="M294.988 24.057C296.19 25.6898 298.307 28.2336 301.3 31.6911L311.015 42.9145L320.392 53.7168C320.583 50.0674 320.679 45.3141 320.679 39.457C320.788 36.5253 320.692 33.5896 320.392 30.6713C320.198 29.2219 319.485 27.8917 318.383 26.9273C317.189 25.8831 315.64 25.3339 314.054 25.3919C313.236 25.3919 312.852 25.2487 312.852 24.8648C312.851 24.7781 312.873 24.6928 312.915 24.617C312.957 24.5412 313.019 24.4776 313.093 24.4323C314.447 24.2413 315.813 24.1456 317.181 24.1458C319.729 24.0484 321.847 24.0026 323.626 24.0026H328.386C329.011 24.0026 329.347 24.1945 329.347 24.5297C329.347 24.8648 329.06 25.0109 328.529 25.1026C326.914 25.1869 325.367 25.7751 324.105 26.7841C323.104 27.746 322.502 29.049 322.42 30.4336C322.277 32.0177 322.179 37.3085 322.179 46.3749L321.844 62.365C321.844 63.1814 321.651 63.5653 321.218 63.5653C321.063 63.562 320.912 63.5121 320.785 63.422C319.824 62.4624 318.909 61.4168 318.045 60.3483C316.361 58.3804 314.389 56.0744 311.985 53.3387C309.581 50.603 307.704 48.3945 306.31 46.6156C303.28 42.9661 301.403 40.7088 300.585 39.8924C298.714 38.0124 296.978 36.0021 295.392 33.8768C295.056 33.2523 294.718 32.9659 294.431 32.9659C294.144 32.9659 294.095 33.3497 294.095 34.1117V38.844C294.095 44.7965 294.239 49.5517 294.577 53.1038C294.626 55.2405 294.966 57.3606 295.587 59.4059C296.06 60.1663 296.702 60.8074 297.464 61.2793C298.272 61.8789 299.246 62.2141 300.253 62.239C301.592 62.239 302.261 62.4786 302.261 62.958C302.261 63.4392 301.877 63.5309 301.156 63.5309H286.523C285.849 63.5309 285.513 63.3876 285.513 63.0038C285.513 62.6199 285.849 62.3793 286.523 62.3793C287.437 62.4887 288.364 62.3947 289.237 62.104C290.11 61.8132 290.908 61.333 291.573 60.6978C292.674 58.5356 293.109 56.0968 292.824 53.6882L292.681 43.0893C292.842 39.3837 292.665 35.6712 292.153 31.9976C291.628 30.5008 290.851 29.104 289.857 27.8669C289.388 27.1607 288.78 26.5577 288.069 26.0951C287.358 25.6325 286.559 25.3201 285.723 25.1771C285.048 25.0797 284.664 24.8906 284.664 24.6042C284.664 24.3177 285.097 24.0312 286.01 24.0312L294.988 24.057Z" fill="white"/>
<path d="M377.625 24.2003C378.353 27.3377 378.916 30.5113 379.309 33.7078C379.214 33.851 379.117 33.9484 378.973 33.9484C378.887 33.9489 378.801 33.927 378.725 33.8848C378.649 33.8427 378.586 33.7817 378.54 33.7078C377.432 31.8338 376.091 30.1072 374.549 28.5687C373.438 27.4981 372.132 26.6501 370.701 26.0708C368.548 25.4483 366.302 25.205 364.065 25.3518C361.713 25.3066 359.361 25.4792 357.041 25.8674C356.843 26.2002 356.758 26.5883 356.8 26.9732V27.7409C356.609 29.3737 356.513 33.7431 356.513 40.8492V42.1468L359.686 42.2442C361.602 42.4005 363.523 42.0027 365.218 41.0984C366.702 39.8181 367.745 38.1045 368.199 36.2C368.343 35.7674 368.535 35.5755 368.825 35.5755C369.066 35.5755 369.399 35.8619 369.399 36.4349L369.301 37.6351C369.158 39.2679 369.06 40.9494 369.06 42.5794C369.06 45.315 369.109 47.813 369.204 50.0273C369.204 50.7004 369.011 51.0843 368.63 51.0843C368.248 51.0843 368.197 50.8437 368.056 50.3653C367.86 48.3682 366.894 46.5255 365.362 45.2262C362.622 43.8726 359.553 43.3233 356.513 43.6421C356.464 45.1317 356.415 47.4835 356.415 50.8036C356.318 53.5162 356.463 56.232 356.849 58.9189C357.006 59.5035 357.285 60.0487 357.666 60.5198C358.047 60.9908 358.522 61.3773 359.061 61.6546C360.904 62.4681 362.919 62.8144 364.928 62.6629C372.767 62.6629 377.866 59.9731 380.173 54.5476C380.462 53.8754 380.749 53.5392 381.034 53.5392C381.321 53.5392 381.516 53.7799 381.516 54.2124C381.519 54.4752 381.47 54.7361 381.372 54.9801C381.229 55.364 380.939 56.8049 380.46 59.3028C380.362 59.8299 379.978 61.4168 379.312 64.0093H366.616C364.788 64.0093 362.094 63.9119 358.582 63.7686C355.024 63.6254 351.848 63.528 349.205 63.528C347.776 63.5762 346.346 63.5284 344.924 63.3848C344.871 63.345 344.826 63.2947 344.793 63.2371C344.76 63.1794 344.739 63.1156 344.732 63.0496C344.732 62.6658 345.068 62.4252 345.742 62.4252C346.571 62.5434 347.416 62.4415 348.193 62.1297C348.969 61.8179 349.65 61.3072 350.166 60.6491C351.103 57.853 351.463 54.8967 351.225 51.958V45.7104L351.328 39.9039C351.328 38.758 351.328 36.5437 351.136 33.1807C351.104 31.3029 350.975 29.428 350.752 27.5633C350.587 27.0092 350.25 26.5216 349.79 26.1711C348.77 25.4932 347.626 25.0203 346.425 24.7789C345.897 24.6357 345.656 24.395 345.656 24.1057C345.656 23.8164 345.991 23.5786 346.715 23.5786L352.918 23.9138C355.081 24.0112 360.47 24.057 369.029 24.057L377.625 24.2003Z" fill="white"/>
<path d="M420.136 40.1903C421.146 38.9901 422.491 37.1653 424.176 34.7648C425.275 33.2716 426.286 31.7165 427.206 30.107C427.483 29.5357 427.647 28.9159 427.688 28.2823C427.702 27.8664 427.603 27.4545 427.401 27.0906C427.199 26.7267 426.901 26.4247 426.54 26.2169C425.774 25.7325 424.897 25.4515 423.992 25.4005C423.131 25.4005 422.692 25.1141 422.692 24.7273C422.692 24.3406 423.318 24.2003 424.569 24.2003H437.32C437.834 24.1594 438.352 24.1922 438.858 24.2976C439.05 24.2976 439.145 24.4896 439.145 24.7302C439.145 24.9708 438.76 25.2573 437.997 25.3031C436.115 25.3846 434.303 26.0383 432.804 27.1765C430.25 29.3971 427.988 31.9302 426.069 34.7161C423.232 38.5575 421.645 40.8148 421.309 41.4393C425.123 47.4024 429.299 53.1269 433.814 58.5809C435.457 60.7384 437.868 62.1824 440.548 62.6142C441.268 62.6142 441.655 62.9007 441.655 63.2874C441.655 63.6741 441.271 63.8145 440.508 63.8145L438.006 63.7171C436.129 63.5738 434.35 63.5251 432.666 63.5251C429.828 63.5251 427.134 63.5251 424.537 63.7171H423.547C422.586 63.7171 422.113 63.5738 422.113 63.2358C422.113 62.8978 422.4 62.7087 422.93 62.6113C425.478 62.6113 426.778 61.7949 426.778 60.2108C426.778 58.6267 423.797 53.8257 417.832 46.0455C416.063 48.1278 414.44 50.3292 412.974 52.634C411.232 54.7321 409.909 57.1448 409.078 59.741C409.078 60.4142 409.56 61.0387 410.57 61.5658C411.738 62.147 413.016 62.4741 414.32 62.5254C415.04 62.5254 415.427 62.766 415.427 63.0983C415.427 63.4306 415.092 63.6712 414.369 63.6712H413.264L407.012 63.528C403.356 63.528 400.857 63.5767 399.509 63.7199C398.691 63.7199 398.209 63.528 398.209 63.147C398.209 62.766 398.545 62.5741 399.17 62.5741C400.476 62.5839 401.77 62.3224 402.969 61.8064C404.068 61.3324 405.053 60.628 405.856 59.741C406.624 58.8817 408.358 56.5241 411.049 52.7801C413.74 49.0361 415.571 46.2976 416.627 44.6648C412.807 38.5945 408.496 32.8462 403.738 27.4773C402.198 26.1753 400.271 25.4162 398.255 25.3174C397.727 25.3174 397.437 25.0768 397.437 24.7445C397.437 24.4122 397.919 24.2174 398.975 24.2174H414.94C415.407 24.1781 415.877 24.2109 416.334 24.3148C416.424 24.3544 416.498 24.4241 416.542 24.512C416.586 24.5999 416.597 24.7004 416.575 24.7961C416.576 24.8886 416.549 24.9793 416.498 25.0565C416.447 25.1336 416.374 25.1936 416.288 25.2286C415.629 25.3788 414.956 25.4595 414.28 25.4693C413.636 25.5266 413.021 25.7594 412.501 26.1424C412.288 26.2763 412.111 26.46 411.985 26.6777C411.86 26.8954 411.79 27.1404 411.781 27.3914C412.459 29.2974 413.428 31.0877 414.653 32.6994C416.339 35.2965 418.17 37.7973 420.136 40.1903V40.1903Z" fill="white"/>
<path d="M473.667 25.4864C472.081 25.3891 470.973 25.3891 470.302 25.3891C466.897 25.0861 463.501 26.0615 460.779 28.1247C459.222 29.4131 458.057 31.1095 457.413 33.0231C457.397 33.2297 457.304 33.4227 457.153 33.5647C457.002 33.7066 456.803 33.7872 456.595 33.7909C456.484 33.7934 456.373 33.7687 456.273 33.7188C456.173 33.6688 456.086 33.5952 456.021 33.5044C456.221 30.241 456.589 26.9901 457.126 23.7648H458.954C460.541 23.7648 462.658 23.7648 465.304 24.0055C467.949 24.2461 472.517 24.2461 478.433 24.2461C484.35 24.2461 488.389 24.2461 490.168 24.0055C492.437 23.784 494.718 23.7036 496.997 23.7648C497.238 25.2544 497.382 26.7898 497.479 28.3252C497.623 30.1013 497.72 31.3989 497.864 32.1179V32.5992C497.864 33.0804 497.623 33.3182 497.238 33.3182C497.119 33.3218 497 33.2978 496.892 33.2481C496.783 33.1984 496.688 33.1244 496.613 33.0317C496.187 32.5019 495.803 31.9397 495.465 31.3502C494.579 29.9226 493.438 28.6692 492.099 27.6521C490.992 26.7861 489.687 26.2082 488.301 25.9706C485.489 25.6416 482.661 25.4799 479.831 25.4864C479.59 28.5601 479.446 32.0177 479.446 35.9536C479.202 43.6136 479.476 51.2813 480.264 58.9046C480.838 61.2564 482.812 62.4108 486.226 62.4108C487.044 62.4108 487.477 62.5541 487.477 62.9379C487.477 63.3218 487.093 63.5624 486.329 63.5624H467.765C467.285 63.5624 467.045 63.3714 467.045 62.9895C467.045 62.6075 467.523 62.4166 468.48 62.4166C469.855 62.5069 471.21 62.0542 472.253 61.156C473.297 60.2579 473.945 58.9863 474.058 57.6155V57.3749C474.201 55.8395 474.299 51.3593 474.299 44.0747C474.29 37.8356 474.092 31.6424 473.667 25.4864Z" fill="white"/>
<path d="M498.002 86.0923H16.0073V89.0923H498.002V86.0923Z" fill="url(#paint0_linear_1_2)"/>
<defs>
<linearGradient id="paint0_linear_1_2" x1="16.0073" y1="151.471" x2="501.375" y2="151.471" gradientUnits="userSpaceOnUse">
<stop stop-color="#662D91"/>
<stop offset="0.166667" stop-color="#262262"/>
<stop offset="0.348958" stop-color="#2463A8"/>
<stop offset="0.536458" stop-color="#00A79D"/>
<stop offset="0.713542" stop-color="#8DC63F"/>
<stop offset="1" stop-color="#F9ED32"/>
</linearGradient>
</defs>
</svg>
