<svg height="512" viewBox="0 0 58 58" width="512" xmlns="http://www.w3.org/2000/svg"><g id="Page-1" fill="none" fill-rule="evenodd"><g id="003---Jungle-Trees" fill-rule="nonzero" transform="translate(-1 -1)"><path id="Shape" d="m43 39 1 17h-28l1-17v-2.46c.6074777-.3529906 1.2974112-.5392727 2-.54.7994497-.003067 1.5808413.2376295 2.24.69.3846561-1.1273515 1.2548392-2.0226331 2.3708004-2.4391812 1.1159612-.416548 2.3599395-.3104064 3.3891996.2891812h6c1.0292601-.5995876 2.2732384-.7057292 3.3891996-.2891812 1.1159612.4165481 1.9861443 1.3118297 2.3708004 2.4391812.6591587-.4523705 1.4405503-.693067 2.24-.69.7025888.0007273 1.3925223.1870094 2 .54z" fill="#4c8056"/><path id="Shape" d="m37 55c-4 0-4-3-4-7v-17.01h-6v17.01c0 4 0 7-4 7z" fill="#cb8252"/><path id="Shape" d="m17 42.54v-11.66l-4-1.19v11.31z" fill="#cb8252"/><path id="Shape" d="m47 41v-11.31l-4 1.19v11.66z" fill="#cb8252"/><path id="Shape" d="m.9999948 57 .0000052-13c-.00314196-1.9603043 1.41785776-3.6326688 3.35295102-3.9460644 1.93509325-.3133955 3.8113018.8249738 4.42704898 2.6860644 1.11871159-1.1189997 2.6377081-1.7453158 4.22-1.74 2.1484959-.0021137 4.1337966 1.1458511 5.2037512 3.0089766 1.0699545 1.8631255 1.0608931 4.1564113-.0237512 6.0110234 2.1340006.0889488 3.8186379 1.8441469 3.82 3.98.0030533.3377372-.0406959.6742693-.13 1z" fill="#4fba6f"/><path id="Shape" d="m38.13 55c-.0893041-.3257307-.1330533-.6622628-.13-1 .0013621-2.1358531 1.6859994-3.8910512 3.82-3.98-1.498586-2.5985087-.8478539-5.9044922 1.5237394-7.7412156 2.3715934-1.8367233 5.7352495-1.6397554 7.8762606.4612156.6157472-1.8610906 2.4919557-2.9994599 4.427049-2.6860644 1.9350932.3133956 3.356093 1.9857601 3.352951 3.9460644l.0000052 13z" fill="#4fba6f"/><g fill="#f0c419"><circle id="Oval" cx="7" cy="48" r="1"/><circle id="Oval" cx="13" cy="51" r="1"/><circle id="Oval" cx="53" cy="48" r="1"/><circle id="Oval" cx="47" cy="51" r="1"/></g><path id="Shape" d="m20.74 28.29h-.02c-.2549338-.0874655-.4970673-.2085322-.72-.36-.4849557 1.8105631-2.1256146 3.0696079-4 3.0696079s-3.5150443-1.2590448-4-3.0696079c-.5414486.3618403-1.1787831.5533889-1.83.55-1.84670532-.0044124-3.34110844-1.5032897-3.34-3.35.00350692-.3190045.05405093-.6357469.15-.94-.3220554.0688896-.65066796.1024215-.98.1-2.50252306-.0151893-4.61373807-1.8667503-4.95534262-4.345895-.34160454-2.4791448 1.19018486-4.83268 3.59534262-5.524105-.60526585-1.7854696-.31438916-3.7531129.78159006-5.28708747 1.09597921-1.53397452 2.86314827-2.44685087 4.74840994-2.45291253.764801.0009951 1.5221385.15042493 2.23.44.7278921-1.30611144 2.1047593-2.11693326 3.6-2.12.6018231-.00135522 1.1963314.13189665 1.74.39z" fill="#24ae5f"/><path id="Shape" d="m42.26 5.39c.5436686-.25810335 1.1381769-.39135522 1.74-.39 1.4952407.00306674 2.8721079.81388856 3.6 2.12 1.8071785-.74396465 3.8666045-.5355104 5.4880479.55549792 1.6214433 1.09100833 2.5903378 2.92019728 2.5819521 4.87450208-.000468.6360841-.1051895 1.2677909-.31 1.87 2.4051578.691425 3.9369472 3.0449602 3.5953426 5.524105-.3416045 2.4791447-2.4528195 4.3307057-4.9553426 4.345895-.329332.0024215-.6579446-.0311104-.98-.1.0959491.3042531.1464931.6209955.15.94.0011084 1.8467103-1.4932947 3.3455876-3.34 3.35-.6512169.0033889-1.2885514-.1881597-1.83-.55-.4849557 1.8105631-2.1256146 3.0696079-4 3.0696079s-3.5150443-1.2590448-4-3.0696079c-.2229327.1514678-.4650662.2725345-.72.36h-.02z" fill="#24ae5f"/><path id="Shape" d="m43.631 12.23c.8737421-2.59991626.148553-5.47058182-1.8551437-7.34359795-2.0036967-1.87301612-4.9166812-2.4032435-7.4518563-1.35640205-.8773732-1.56388435-2.5308135-2.5321418-4.324-2.5321418s-3.4466268.96825745-4.324 2.5321418c-2.535525-1.0544678-5.4535411-.52711973-7.4596067 1.34811088-2.0060657 1.87523062-2.7287209 4.75111019-1.8473933 7.35188912-3.0763454.8962373-4.9055897 4.0515531-4.1547037 7.1665672s3.8168845 5.090313 6.9637037 4.4864328c-.1128702.3618057-.172824.7380327-.178 1.117.0020787 1.4701207.8104199 2.8206248 2.1051216 3.5170491 1.2947017.6964242 2.8670853.6265196 4.0948784-.1820491.5896939 2.1634769 2.554597 3.6644928 4.797 3.6644928s4.2073061-1.5010159 4.797-3.6644928c1.2280057.8118745 2.8027108.8836176 4.0994535.1867699 1.2967426-.6968477 2.1059211-2.0496498 2.1065465-3.5217699-.005176-.3789673-.0651298-.7551943-.178-1.117 3.1468192.6038802 6.2128177-1.3714187 6.9637037-4.4864328s-1.0783583-6.2703299-4.1547037-7.1665672z" fill="#4fba6f"/><path id="Shape" d="m25 23c-2.209139 0-4-1.790861-4-4 0-.5522847.4477153-1 1-1s1 .4477153 1 1c0 1.1045695.8954305 2 2 2 .5522847 0 1 .4477153 1 1s-.4477153 1-1 1z" fill="#24ae5f"/><path id="Shape" d="m28 15c-2.209139 0-4-1.790861-4-4 0-.5522847.4477153-1 1-1s1 .4477153 1 1c0 1.1045695.8954305 2 2 2 .5522847 0 1 .4477153 1 1s-.4477153 1-1 1z" fill="#24ae5f"/><path id="Shape" d="m35 20c-.5522847 0-1-.4477153-1-1s.4477153-1 1-1c1.1045695 0 2-.8954305 2-2 0-.5522847.4477153-1 1-1s1 .4477153 1 1c0 2.209139-1.790861 4-4 4z" fill="#24ae5f"/><rect id="Rectangle-path" fill="#7ed09e" height="4" rx="2" width="58" x="1" y="55"/></g></g></svg>