<svg width="29" height="29" viewBox="0 0 29 29" fill="none" xmlns="http://www.w3.org/2000/svg">
<path d="M24.6072 27.105V3.99387C24.6072 3.22769 24.3028 2.49289 23.7611 1.95112C23.2193 1.40934 22.4845 1.10498 21.7183 1.10498H7.27387C6.50769 1.10498 5.77289 1.40934 5.23112 1.95112C4.68935 2.49289 4.38498 3.22769 4.38498 3.99387V27.105M24.6072 27.105H4.38498M24.6072 27.105H27.4961M24.6072 27.105H17.385M4.38498 27.105H1.49609M4.38498 27.105H11.6072M17.385 27.105V19.8828C17.385 19.4997 17.2328 19.1323 16.9619 18.8614C16.691 18.5905 16.3236 18.4383 15.9405 18.4383H13.0516C12.6686 18.4383 12.3012 18.5905 12.0303 18.8614C11.7594 19.1323 11.6072 19.4997 11.6072 19.8828V27.105M17.385 27.105H11.6072M10.1628 6.88276H11.6072M10.1628 12.6605H11.6072M17.385 6.88276H18.8294M17.385 12.6605H18.8294" stroke="#FFE920" stroke-width="2" stroke-linecap="round" stroke-linejoin="round"/>
</svg>
