<svg width="68" height="60" viewBox="0 0 68 60" fill="none" xmlns="http://www.w3.org/2000/svg">
<g filter="url(#filter0_d_715_283)">
<path d="M49.3625 32.6389H47.8171C47.3312 32.6389 46.9375 33.0326 46.9375 33.5185C46.9376 34.0044 47.3314 34.3981 47.8171 34.3981H49.3625C49.8483 34.3981 50.2421 34.0044 50.2421 33.5185C50.2421 33.0326 49.8483 32.6389 49.3625 32.6389Z" fill="#EBE5FD"/>
<path d="M63.9972 27.6331C63.9913 27.485 63.9746 27.3371 63.9459 27.1924L61.9751 17.2188C61.975 17.2184 61.9749 17.2181 61.9749 17.2177L61.5837 15.2381C61.321 13.9085 60.1465 12.9433 58.7911 12.9433H6.8548C5.28062 12.9432 4 14.224 4 15.7981V39.3053C4 40.8795 5.28062 42.1601 6.8548 42.1601H9.64093C10.0657 44.9289 12.464 47.0563 15.3497 47.0563C18.2354 47.0563 20.6337 44.929 21.0585 42.1601H23.3237C23.8095 42.1601 24.2033 41.7664 24.2033 41.2805C24.2033 40.7947 23.8096 40.4009 23.3237 40.4009H21.0584C20.6336 37.6322 18.2353 35.5048 15.3496 35.5048C12.4639 35.5048 10.0656 37.6321 9.64081 40.4009H6.8548C6.25058 40.4009 5.7591 39.9093 5.7591 39.3052V15.7981C5.7591 15.1939 6.25058 14.7023 6.8548 14.7023H58.791C59.3088 14.7023 59.7574 15.071 59.8579 15.579L60.0418 16.5097H48.493C47.6356 16.5097 46.9381 17.2072 46.9381 18.0645V27.5514C46.9381 28.4439 47.3654 29.2906 48.081 29.8162C49.8038 31.0818 53.6556 32.6458 62.2407 33.033V38.9356C62.2407 39.7437 61.5832 40.4011 60.7751 40.4011H58.3588C57.9339 37.6325 55.5358 35.5051 52.6499 35.5051C49.7642 35.5051 47.3661 37.6324 46.9412 40.4011H27.4165C26.9307 40.4011 26.5369 40.7949 26.5369 41.2808C26.5369 41.7666 26.9306 42.1604 27.4165 42.1604H46.9414C47.3662 44.9292 49.7644 47.0566 52.6502 47.0566C55.536 47.0566 57.9342 44.9293 58.3591 42.1604H60.7754C62.5534 42.1604 64 40.7138 64 38.9357V27.7444V27.7443C63.9999 27.7071 63.9986 27.67 63.9972 27.6331ZM15.3497 37.2642C17.5644 37.2642 19.3662 39.0659 19.3662 41.2806C19.3662 43.4954 17.5644 45.2972 15.3497 45.2972C13.135 45.2972 11.3332 43.4954 11.3332 41.2806C11.3332 39.0659 13.135 37.2642 15.3497 37.2642ZM52.6502 45.2971C50.4355 45.2971 48.6337 43.4952 48.6337 41.2805C48.6337 39.0658 50.4355 37.264 52.6502 37.264C54.8649 37.264 56.6668 39.0658 56.6668 41.2805C56.6667 43.4952 54.8649 45.2971 52.6502 45.2971ZM48.6973 27.5514V18.2689H60.3893L62.22 27.5339C62.2233 27.5504 62.225 27.5673 62.2274 27.584C62.2347 27.6329 62.2394 27.6822 62.24 27.7316C62.24 27.7359 62.2406 27.7401 62.2406 27.7443V31.272C53.7207 30.8792 50.3717 29.3162 49.1226 28.3985C48.8564 28.2029 48.6973 27.8862 48.6973 27.5514Z" fill="#EBE5FD"/>
<path d="M24.0208 16.5097H9.29738C8.52383 16.5097 7.89453 17.139 7.89453 17.9125V27.8102C7.89453 28.5837 8.52383 29.213 9.29738 29.213H24.0208C24.7943 29.213 25.4236 28.5837 25.4236 27.8102V17.9125C25.4236 17.139 24.7943 16.5097 24.0208 16.5097ZM15.7795 27.4539H9.65363V18.2688H15.7795V27.4539ZM23.6645 27.4539H17.5387V18.2688H23.6645V27.4539Z" fill="#EBE5FD"/>
<path d="M43.3275 16.5097H28.604C27.8305 16.5097 27.2012 17.139 27.2012 17.9125V27.8102C27.2012 28.5837 27.8305 29.213 28.604 29.213H43.3275C44.1011 29.213 44.7304 28.5837 44.7304 27.8102V17.9125C44.7304 17.139 44.1011 16.5097 43.3275 16.5097ZM42.9713 27.4539H36.8453V24.1203C36.8453 23.6344 36.4516 23.2407 35.9657 23.2407C35.4799 23.2407 35.0861 23.6344 35.0861 24.1203V27.4539H28.9603V18.2688H35.0861V20.0275C35.0861 20.5134 35.4799 20.9071 35.9657 20.9071C36.4516 20.9071 36.8453 20.5134 36.8453 20.0275V18.2688H42.9713V27.4539Z" fill="#EBE5FD"/>
</g>
<defs>
<filter id="filter0_d_715_283" x="0" y="0" width="68" height="68" filterUnits="userSpaceOnUse" color-interpolation-filters="sRGB">
<feFlood flood-opacity="0" result="BackgroundImageFix"/>
<feColorMatrix in="SourceAlpha" type="matrix" values="0 0 0 0 0 0 0 0 0 0 0 0 0 0 0 0 0 0 127 0" result="hardAlpha"/>
<feOffset dy="4"/>
<feGaussianBlur stdDeviation="2"/>
<feComposite in2="hardAlpha" operator="out"/>
<feColorMatrix type="matrix" values="0 0 0 0 0 0 0 0 0 0 0 0 0 0 0 0 0 0 0.25 0"/>
<feBlend mode="normal" in2="BackgroundImageFix" result="effect1_dropShadow_715_283"/>
<feBlend mode="normal" in="SourceGraphic" in2="effect1_dropShadow_715_283" result="shape"/>
</filter>
</defs>
</svg>
