<svg width="59" height="63" viewBox="0 0 59 63" fill="none" xmlns="http://www.w3.org/2000/svg">
<path d="M11.9899 36.8077C9.53269 36.8104 7.16084 35.9064 5.32877 34.2689C3.4967 32.6313 2.33325 30.3754 2.06132 27.9332C1.78938 25.491 2.42809 23.0344 3.85506 21.034C5.28204 19.0335 7.39694 17.6299 9.7946 17.0921C9.10088 13.8567 9.72082 10.4782 11.5181 7.69992C13.3153 4.92161 16.1426 2.97104 19.378 2.27732C22.6134 1.5836 25.9918 2.20354 28.7701 4.00077C31.5484 5.79801 33.499 8.6253 34.1927 11.8607H34.4422C37.5355 11.8576 40.5196 13.004 42.8152 15.0773C45.1109 17.1506 46.5542 20.003 46.8651 23.0806C47.1759 26.1583 46.3322 29.2416 44.4975 31.7321C42.6629 34.2227 39.9683 35.9426 36.9369 36.5582M31.9475 24.3342L24.4634 16.8501M24.4634 16.8501L16.9793 24.3342M24.4634 16.8501V38.5784" stroke="white" stroke-opacity="0.85" stroke-width="3" stroke-linecap="round" stroke-linejoin="round"/>
<path d="M21.977 50.5344H20.7197C20.54 50.5344 20.4402 50.4346 20.4203 50.235C20.3005 48.7382 19.6419 47.4809 18.4445 46.463C17.247 45.4452 15.6704 44.9363 13.7145 44.9363C11.5392 44.9363 9.72303 45.6448 8.26612 47.0618C6.82918 48.4788 6.1107 50.3647 6.1107 52.7197C6.1107 55.0747 6.82918 56.9607 8.26612 58.3777C9.72303 59.7947 11.5392 60.5032 13.7145 60.5032C15.8101 60.5032 17.4167 60.0142 18.5343 59.0363C19.6918 58.0384 20.3405 56.8709 20.4802 55.5338C20.5201 55.3142 20.6398 55.2045 20.8394 55.2045H21.9171C22.1167 55.2045 22.2165 55.2643 22.2165 55.3841C22.2165 56.1025 22.0468 56.851 21.7076 57.6293C21.3683 58.3877 20.8693 59.0962 20.2107 59.7548C19.5521 60.4134 18.664 60.9522 17.5464 61.3713C16.4088 61.7705 15.1515 61.9701 13.7744 61.9701C11.0801 61.9701 8.86485 61.1319 7.12854 59.4554C5.37227 57.759 4.49414 55.5138 4.49414 52.7197C4.49414 49.9456 5.38225 47.7004 7.15848 45.9841C8.91474 44.2877 11.13 43.4395 13.8043 43.4395C16.4188 43.4395 18.4844 44.1579 20.0012 45.5949C21.518 47.0318 22.2763 48.6085 22.2763 50.3248C22.2763 50.4645 22.1766 50.5344 21.977 50.5344Z" fill="white" fill-opacity="0.85"/>
<path d="M27.9652 52.7197V52.7497C27.9652 49.9756 28.6537 47.7403 30.0308 46.0439C31.4079 44.3276 33.2839 43.4694 35.6588 43.4694C38.0338 43.4694 39.9098 44.3276 41.2869 46.0439C42.6639 47.7403 43.3525 49.9756 43.3525 52.7497C43.3525 55.5238 42.6639 57.769 41.2869 59.4854C39.9297 61.1618 38.0537 62 35.6588 62C33.2839 62 31.4079 61.1518 30.0308 59.4554C28.6537 57.759 27.9652 55.5138 27.9652 52.7197ZM29.6416 52.7497C29.6416 55.1246 30.1805 57.0106 31.2582 58.4076C32.3359 59.8246 33.8028 60.5331 35.6588 60.5331C37.5149 60.5331 38.9818 59.8246 40.0595 58.4076C41.1372 57.0106 41.676 55.1246 41.676 52.7497C41.676 50.4146 41.1372 48.5286 40.0595 47.0917C38.9818 45.6548 37.5149 44.9363 35.6588 44.9363C33.8028 44.9363 32.3359 45.6548 31.2582 47.0917C30.1805 48.5286 29.6416 50.4146 29.6416 52.7497Z" fill="white" fill-opacity="0.85"/>
<path d="M48.4152 49.2272L48.3554 48.4688L53.8637 44.9163C54.9014 44.2511 55.6532 43.6191 56.1189 43.0204C56.5845 42.4083 56.8174 41.763 56.8174 41.0845C56.8174 40.2329 56.4981 39.5145 55.8594 38.9291C55.2075 38.3436 54.3426 38.0509 53.2649 38.0509C52.2271 38.0509 51.369 38.3503 50.6904 38.949C50.0118 39.5477 49.6726 40.4126 49.6726 41.5435C49.6726 41.6765 49.6127 41.7431 49.4929 41.7431H48.7346C48.6148 41.7431 48.5549 41.6965 48.5549 41.6034C48.5549 40.2196 48.974 39.122 49.8123 38.3104C50.6638 37.4855 51.8147 37.073 53.2649 37.073C54.7019 37.073 55.8461 37.4655 56.6976 38.2505C57.5358 39.0222 57.955 39.9602 57.955 41.0645C57.955 41.8894 57.6822 42.6744 57.1367 43.4195C56.6045 44.1513 55.6864 44.9363 54.3825 45.7745L51.4687 47.6505L50.4709 48.1894V48.2293H57.955C57.9949 48.2293 58.0348 48.2492 58.0747 48.2892C58.1146 48.3291 58.1346 48.369 58.1346 48.4089V49.0475C58.1346 49.0875 58.1146 49.1274 58.0747 49.1673C58.0348 49.2072 57.9949 49.2272 57.955 49.2272H48.4152Z" fill="white" fill-opacity="0.85"/>
<path d="M20.1711 50.255L20.171 50.255L20.1715 50.2599C20.1849 50.3934 20.2285 50.5315 20.3333 50.6363C20.442 50.745 20.5825 50.7844 20.7197 50.7844H21.977C22.0983 50.7844 22.2338 50.7645 22.3449 50.6868C22.4722 50.5977 22.5263 50.4624 22.5263 50.3248C22.5263 48.5253 21.7281 46.8865 20.1731 45.4134C18.599 43.9221 16.4659 43.1895 13.8043 43.1895C11.072 43.1895 8.79231 44.0583 6.98479 45.8042L6.98476 45.8043C5.15356 47.5737 4.24414 49.887 4.24414 52.7197C4.24414 55.5709 5.14263 57.8848 6.95485 59.6352L6.95489 59.6353C8.74339 61.3621 11.0236 62.2201 13.7744 62.2201C15.1757 62.2201 16.4615 62.017 17.6292 61.6072L17.6292 61.6073L17.6342 61.6054C18.7762 61.1772 19.6976 60.6214 20.3875 59.9316C21.0651 59.254 21.5826 58.5208 21.9358 57.7314L21.9367 57.7292C22.2873 56.925 22.4665 56.1426 22.4665 55.3841C22.4665 55.2395 22.3981 55.1117 22.2703 55.035C22.1628 54.9705 22.0337 54.9545 21.9171 54.9545H20.8394C20.692 54.9545 20.5469 54.9962 20.431 55.1025C20.3182 55.2058 20.2603 55.3453 20.2342 55.489L20.2325 55.4984L20.2315 55.5078C20.0993 56.7728 19.4875 57.8845 18.3711 58.8469L18.3697 58.8482C17.3133 59.7725 15.7742 60.2532 13.7145 60.2532C11.5995 60.2532 9.84771 59.5669 8.44108 58.1991C7.06013 56.837 6.3607 55.0196 6.3607 52.7197C6.3607 50.4199 7.06012 48.6024 8.44108 47.2403C9.8477 45.8726 11.5995 45.1863 13.7145 45.1863C15.626 45.1863 17.1406 45.6828 18.2826 46.6535C19.4321 47.6306 20.0569 48.8277 20.1711 50.255ZM29.8362 45.8869C28.4195 47.6325 27.7202 49.918 27.7152 52.7197H27.7152V52.7497H27.7152C27.7201 55.5711 28.4194 57.867 29.8367 59.613C31.2658 61.3734 33.216 62.25 35.6588 62.25C38.1197 62.25 40.0709 61.3847 41.4812 59.6427L41.4819 59.6418C42.903 57.8706 43.6025 55.5655 43.6025 52.7497C43.6025 49.9342 42.9031 47.6386 41.4813 45.8868C40.0527 44.1066 38.1024 43.2194 35.6588 43.2194C33.2152 43.2194 31.2649 44.1066 29.8362 45.8869ZM31.4572 58.2563L31.4561 58.2549C30.4222 56.9146 29.8916 55.0884 29.8916 52.7497C29.8916 50.4525 30.4215 48.624 31.4582 47.2417C32.4869 45.8701 33.8784 45.1863 35.6588 45.1863C37.4393 45.1863 38.8308 45.8701 39.8595 47.2417C40.8962 48.624 41.426 50.4525 41.426 52.7497C41.426 55.0884 40.8955 56.9146 39.8615 58.2549L39.8605 58.2563C38.8324 59.6081 37.4407 60.2831 35.6588 60.2831C33.877 60.2831 32.4853 59.6081 31.4572 58.2563ZM48.166 49.2468L48.1842 49.4772H48.4152H57.955C58.0846 49.4772 58.1843 49.4112 58.2515 49.3441L58.0747 49.1673L58.2515 49.3441C58.3186 49.2769 58.3846 49.1771 58.3846 49.0475V48.4089C58.3846 48.2793 58.3186 48.1796 58.2515 48.1124L58.0747 48.2892L58.2515 48.1124C58.1843 48.0452 58.0846 47.9793 57.955 47.9793H51.3861L51.5875 47.8705L51.596 47.8659L51.6041 47.8607L54.5177 45.9848C55.8314 45.1403 56.7794 44.3356 57.3384 43.5672C57.9114 42.7846 58.205 41.9488 58.205 41.0645C58.205 39.8879 57.7548 38.884 56.8671 38.0667C55.9589 37.2295 54.7488 36.823 53.2649 36.823C51.7651 36.823 50.5465 37.251 49.6384 38.1308C48.7425 38.9981 48.3049 40.1655 48.3049 41.6034C48.3049 41.7076 48.3416 41.824 48.4464 41.9055C48.5391 41.9776 48.6492 41.9931 48.7346 41.9931H49.4929C49.5985 41.9931 49.7216 41.9625 49.8135 41.8604C49.9009 41.7633 49.9226 41.6424 49.9226 41.5435C49.9226 40.465 50.244 39.6763 50.8558 39.1365C51.482 38.5839 52.2785 38.3009 53.2649 38.3009C54.2952 38.3009 55.0954 38.5795 55.6914 39.1142C56.2788 39.653 56.5674 40.3048 56.5674 41.0845C56.5674 41.7008 56.3574 42.2936 55.9207 42.8679C55.4799 43.4343 54.755 44.048 53.7287 44.7059L53.7282 44.7062L48.2199 48.2587L48.0944 48.3396L48.1061 48.4884L48.166 49.2468Z" stroke="white" stroke-opacity="0.85" stroke-width="0.5"/>
</svg>
