<svg width="64" height="61" viewBox="0 0 64 61" fill="none" xmlns="http://www.w3.org/2000/svg">
<path d="M61.4236 0.500859H2.18857C0.981814 0.500859 0 1.48272 0 2.68943V43.0264C0 44.2332 0.981857 45.215 2.18857 45.215H23.3353L23.3358 54.4187C23.3313 54.5686 23.1971 58.0943 20.1033 58.0943C19.4387 58.0943 18.9005 58.6325 18.9005 59.2972C18.9005 59.9618 19.4387 60.5 20.1033 60.5H43.51C44.1747 60.5 44.7129 59.9618 44.7129 59.2972C44.7129 58.6325 44.1747 58.0943 43.51 58.0943C40.4995 58.0943 40.2908 54.7902 40.2775 54.4522L40.277 45.2155H61.4236C62.6304 45.2155 63.6122 44.2337 63.6122 43.027V2.68857C63.6122 1.48181 62.6304 0.5 61.4236 0.5V0.500859ZM24.6386 58.096C25.414 56.8837 25.7133 55.4621 25.7418 54.4539V45.2167H37.871L37.8716 54.488C37.8995 55.4788 38.1983 56.8898 38.9714 58.0965L24.6386 58.096ZM61.2059 42.81H2.40627V36.8451H61.2059V42.81ZM61.2059 34.4394H2.40627V2.9077H61.2059V34.4394Z" fill="white" fill-opacity="0.85"/>
<path d="M24.2312 29.9119C24.4662 30.1469 24.7739 30.2644 25.0816 30.2644C25.3893 30.2644 25.697 30.1469 25.932 29.9119C26.4019 29.4426 26.4019 28.6806 25.932 28.2106L17.7308 20.0089L25.932 11.8077C26.4019 11.3383 26.4019 10.5763 25.932 10.1064C25.4621 9.63641 24.7006 9.63643 24.2307 10.1064L15.1786 19.1584C14.9532 19.3839 14.8262 19.6899 14.8262 20.0088C14.8262 20.3277 14.9532 20.6337 15.1786 20.8592L24.2312 29.9119Z" fill="white" fill-opacity="0.85"/>
<path d="M37.6792 29.9118C37.9142 30.1467 38.2219 30.2642 38.5296 30.2642C38.8373 30.2642 39.145 30.1467 39.38 29.9118L48.4326 20.8597C48.658 20.6343 48.785 20.3282 48.785 20.0093C48.785 19.6899 48.658 19.3839 48.4326 19.1584L39.38 10.1064C38.91 9.63642 38.1486 9.63642 37.6786 10.1064C37.2087 10.5763 37.2087 11.3377 37.6786 11.8077L45.8798 20.0089L37.6792 28.2112C37.2093 28.6805 37.2093 29.4425 37.6792 29.9119V29.9118Z" fill="white" fill-opacity="0.85"/>
<path d="M27.9993 30.1827C28.1414 30.2375 28.288 30.2638 28.4318 30.2638C28.9151 30.2638 29.3705 29.9706 29.5546 29.4929L36.5349 11.3882C36.7744 10.7683 36.465 10.0718 35.8451 9.83298C35.2241 9.59352 34.5287 9.90291 34.2899 10.5228L27.3095 28.6274C27.0701 29.2479 27.3795 29.9439 27.9994 30.1827L27.9993 30.1827Z" fill="white" fill-opacity="0.85"/>
</svg>
