<svg width="63" height="62" viewBox="0 0 63 62" fill="none" xmlns="http://www.w3.org/2000/svg">
<path d="M49.5433 8.06608C50.8674 8.16712 52.1221 8.69918 53.1146 9.58174C53.9972 10.5722 54.5298 11.8257 54.6298 13.1489C54.6429 13.4483 54.8313 13.7115 55.1103 13.8199C55.3886 13.9283 55.7055 13.862 55.917 13.6499C57.65 11.9169 59.4346 7.29879 57.4158 5.28006C55.3971 3.26079 50.779 5.04587 49.0455 6.77888L49.046 6.77941C48.835 6.99044 48.7681 7.30621 48.876 7.58461C48.9834 7.86301 49.2449 8.05195 49.5433 8.06615V8.06608ZM56.3497 6.34671C57.2449 7.24242 56.7096 9.59117 55.7903 11.2711V11.2716C55.2019 9.14966 53.542 7.49294 51.4191 6.90931C53.0995 5.98782 55.4514 5.44997 56.3492 6.34725L56.3497 6.34671ZM5.01655 12.3804L32.5113 21.306L17.1998 39.0439C17.175 39.0371 17.1503 39.0318 17.125 39.0276L7.6211 38.8982C7.41639 38.8903 7.2185 38.9708 7.07746 39.1192L4.13195 42.0642C3.95091 42.2452 3.87407 42.5052 3.92776 42.7557C3.98144 43.0056 4.15826 43.2119 4.3972 43.3025L11.5961 46.0396C10.9688 47.6016 10.832 49.3172 11.204 50.9581C11.2735 51.2191 11.4772 51.4223 11.7382 51.4917C12.3513 51.6375 12.9802 51.708 13.6102 51.7023C14.6054 51.7044 15.5922 51.5202 16.5195 51.1586L19.1361 58.0412C19.2272 58.2801 19.4329 58.4569 19.6834 58.5112C19.735 58.5217 19.7882 58.5275 19.8413 58.5275C20.0413 58.5275 20.2334 58.448 20.3744 58.3064L23.3194 55.3609V55.3615C23.4636 55.2173 23.5431 55.021 23.5404 54.8173L23.4162 45.7023L41.4829 30.1038L50.4916 57.8559C50.5727 58.1054 50.7779 58.2953 51.0331 58.3564C51.2884 58.4179 51.5573 58.3422 51.7431 58.1564L52.2004 57.6985C53.8524 56.0529 54.7986 53.8283 54.8386 51.497L55.0539 40.1032L60.8755 34.2811V34.2816C61.5139 33.6401 61.8722 32.7723 61.8722 31.8676C61.8722 30.9629 61.5138 30.0951 60.8755 29.4541L60.7339 29.3125C60.145 28.7215 59.3582 28.3684 58.5251 28.3216C57.6915 28.2742 56.8705 28.5358 56.2179 29.0568C56.1579 29.0857 56.1027 29.1226 56.0527 29.1668C56.0358 29.1836 56.0295 29.2062 56.0148 29.2241C55.9806 29.2557 55.9406 29.2794 55.9069 29.3125L55.2454 29.9735L55.4701 18.0876C55.4706 18.0692 55.4617 18.0534 55.4606 18.0355L57.011 16.6967C60.0045 13.7032 63.6052 5.3419 60.4797 2.2164C57.3542 -0.909097 48.9922 2.69162 45.9616 5.72614L44.5097 7.40805L32.8985 7.6275L33.56 6.96598C33.5932 6.93282 33.6169 6.89282 33.6485 6.85809C33.6664 6.84335 33.689 6.83704 33.7058 6.8202H33.7064C33.75 6.7702 33.7874 6.71442 33.8163 6.65442C34.3368 6.00237 34.5989 5.18039 34.5515 4.34724C34.5042 3.51363 34.151 2.7269 33.5595 2.13801L33.4185 1.99749V1.99697C32.8296 1.40649 32.0439 1.05336 31.2113 1.00547C30.3782 0.958105 29.5572 1.21966 28.9052 1.73962C28.8441 1.76856 28.7878 1.80593 28.7373 1.85066C28.7199 1.86803 28.7136 1.89066 28.6989 1.90855C28.6647 1.94013 28.6247 1.96328 28.5915 1.99644L22.7693 7.8186L11.3756 8.03385L11.3761 8.03438C9.0447 8.07385 6.82025 9.02009 5.17458 10.672L4.71673 11.1294C4.53095 11.3151 4.45517 11.5841 4.51674 11.8393C4.57779 12.0945 4.76725 12.2998 5.01722 12.3808L5.01655 12.3804ZM6.02278 42.307L7.91837 40.4114L15.924 40.5203L13.1332 43.7537C12.8411 44.0485 12.5753 44.3679 12.3385 44.7084L6.02278 42.307ZM22.0268 54.5196L20.1318 56.4152L17.8625 50.4462C18.2351 50.1983 18.5835 49.9146 18.9024 49.5999L21.9254 46.9902L22.0268 54.5196ZM59.6678 30.3795L59.8094 30.521C60.1667 30.8778 60.3667 31.3625 60.3641 31.8678C60.362 32.0288 60.3399 32.1888 60.2978 32.344L57.8443 29.8911V29.8906C58.4958 29.7185 59.1899 29.9042 59.6678 30.3795L59.6678 30.3795ZM56.5865 30.7668L59.4221 33.6018L55.0956 37.9283L55.2051 32.1483L56.5865 30.7668ZM53.7046 31.6594V31.6599C53.6693 31.7836 53.6672 31.9141 53.6977 32.0388L53.3304 51.4676H53.3299C53.3009 53.2032 52.6678 54.8741 51.5395 56.1929L42.7224 29.0336L53.9372 19.3507L53.7046 31.6594ZM47.0667 6.75264C48.9296 5.12179 51.1115 3.89551 53.4735 3.15142C56.2586 2.24677 58.4247 2.29465 59.4141 3.28405C60.4035 4.27344 60.4519 6.43851 59.5467 9.22463L59.5462 9.22411C58.8078 11.5686 57.5958 13.7363 55.9854 15.593L22.3323 44.6493C22.2244 44.704 22.1313 44.784 22.0613 44.8829L17.8759 48.4968C16.4644 49.8435 14.5004 50.4456 12.5763 50.1215C12.2585 48.179 12.8747 46.2003 14.2389 44.7813L47.0667 6.75264ZM32.3533 3.06507L32.4943 3.20558C32.9695 3.68397 33.1558 4.37811 32.9832 5.02963L30.5419 2.58773C31.1876 2.42617 31.8712 2.60615 32.3532 3.06507H32.3533ZM29.272 3.45188L32.107 6.28691L30.725 7.66892L24.945 7.77838L29.272 3.45188ZM11.406 9.54349L30.8348 9.17615C30.9595 9.20667 31.09 9.20404 31.2137 9.16878L43.1864 8.94248L33.5824 20.0679L6.68045 11.3344C7.99929 10.2061 9.67068 9.57246 11.4058 9.54349L11.406 9.54349ZM13.9263 30.6294C13.6211 30.6294 13.3464 30.4457 13.2295 30.1636C13.1127 29.8821 13.1769 29.5574 13.3927 29.3416L22.0571 20.6771C22.3513 20.3824 22.8292 20.3824 23.1239 20.6771C23.4186 20.9718 23.4186 21.4497 23.1239 21.7439L14.4598 30.4084C14.3183 30.5505 14.1262 30.6299 13.9262 30.6294H13.9263ZM10.4208 22.7242C10.1155 22.7242 9.84029 22.5406 9.72345 22.2585C9.60715 21.9764 9.67135 21.6522 9.88712 21.4364L11.5717 19.7518C11.8664 19.4571 12.3443 19.4571 12.6385 19.7518C12.9332 20.0466 12.9332 20.5239 12.6385 20.8186L10.9539 22.5032C10.8128 22.6448 10.6207 22.7248 10.4208 22.7242ZM1.22103 31.1699C1.07946 31.0283 1 30.8362 1 30.6363C1 30.4363 1.07947 30.2442 1.22103 30.1026L5.47863 25.845C5.77334 25.5503 6.2512 25.5503 6.54538 25.845C6.8401 26.1398 6.8401 26.6171 6.54538 26.9118L2.28738 31.1698H2.28791C2.14634 31.3108 1.95425 31.3908 1.75427 31.3908C1.55429 31.3908 1.3622 31.3108 1.22117 31.1698L1.22103 31.1699ZM35.1948 59.7156L42.9678 51.9426C43.2619 51.6479 43.7398 51.6479 44.0345 51.9426C44.3292 52.2373 44.3292 52.7151 44.0345 53.0093L36.2615 60.7823C35.9663 61.0739 35.4911 61.0723 35.1979 60.7792C34.9048 60.486 34.9032 60.0108 35.1948 59.7156L35.1948 59.7156ZM40.4422 44.8796C40.137 44.8796 39.8617 44.6959 39.7449 44.4138C39.6286 44.1323 39.6928 43.8076 39.9086 43.5918L41.2831 42.2172C41.5779 41.9225 42.0552 41.9225 42.3499 42.2172C42.6446 42.5119 42.6446 42.9892 42.3499 43.2839L40.9753 44.6586C40.8343 44.8006 40.6422 44.8801 40.4417 44.8796H40.4422ZM38.2719 46.2953L38.2714 46.2958C38.4129 46.4368 38.4924 46.6289 38.4924 46.8289C38.4924 47.0289 38.4129 47.221 38.2714 47.3625L33.2797 52.3543C32.9849 52.649 32.5076 52.649 32.2129 52.3543C31.9182 52.0596 31.9182 51.5817 32.2129 51.2875L37.2046 46.2958C37.3462 46.1542 37.5378 46.0742 37.7377 46.0742C37.9382 46.0742 38.1298 46.1542 38.2714 46.2958L38.2719 46.2953Z" fill="white" fill-opacity="0.85" stroke="white" stroke-opacity="0.85" stroke-width="0.4"/>
</svg>
