<svg width="61" height="60" viewBox="0 0 61 60" fill="none" xmlns="http://www.w3.org/2000/svg">
<path d="M59.9173 40.0009H56.9175V3.00322C56.9175 2.73806 56.8121 2.4836 56.6246 2.29612C56.4371 2.10863 56.1827 2.00328 55.9175 2.00328H25.9194C25.6543 2.00328 25.3998 2.10863 25.2123 2.29612C25.0248 2.48361 24.9195 2.73806 24.9195 3.00322V16.0024H15.92C15.6549 16.0024 15.4004 16.1077 15.213 16.2952C15.0255 16.4827 14.9201 16.7372 14.9201 17.0023V40.0009H12.9202V39.0009C12.9207 38.0278 12.5653 37.0881 11.9203 36.3596V7.00262C11.9203 6.73746 11.815 6.48301 11.6275 6.29552L6.24929 0.917349C5.66406 0.330781 4.86995 0.000447498 4.04143 1.81212e-06C3.21291 -0.000890931 2.41788 0.328107 1.8322 0.91423C1.24608 1.49991 0.917079 2.29494 0.917971 3.12346C0.918417 3.95198 1.24875 4.7461 1.83532 5.33132L5.92077 9.41678V36.3591C5.27573 37.0876 4.92039 38.0273 4.92084 39.0004V45C4.92084 45.2652 5.02619 45.5196 5.21368 45.7071C5.40116 45.8946 5.65561 45.9999 5.92077 45.9999H17.92V46.2906C16.0049 46.8611 14.4251 48.2225 13.5783 50.0327C12.7315 51.8424 12.6985 53.928 13.4873 55.764C14.2765 57.5996 15.8126 59.0111 17.7085 59.6419C19.6048 60.2727 21.6801 60.0633 23.4117 59.0665C25.1432 58.0697 26.3668 56.3801 26.7731 54.4235C27.1797 52.4669 26.7307 50.43 25.5392 48.8261L25.7004 48.6248V48.6244C25.8423 48.4471 25.9195 48.2271 25.9195 47.9999V46H46.9182V46.2906C45.0031 46.8611 43.4234 48.2226 42.5765 50.0328C41.7297 51.8425 41.6967 53.9281 42.4855 55.7641C43.2747 57.5996 44.8108 59.0112 46.7067 59.642C48.603 60.2727 50.6783 60.0634 52.4099 59.0666C54.1414 58.0698 55.365 56.3801 55.7713 54.4235C56.1779 52.467 55.7289 50.4301 54.5374 48.8262L54.6986 48.6249V48.6244C54.8405 48.4472 54.9177 48.2271 54.9177 47.9999V46H59.9174C60.1826 46 60.437 45.8947 60.6245 45.7072C60.812 45.5197 60.9174 45.2653 60.9174 45.0001V41.0004C60.9174 40.7352 60.812 40.4807 60.6245 40.2933C60.437 40.1058 60.1826 40.0004 59.9174 40.0004L59.9173 40.0009ZM37.9187 4.00315H43.9183V9.58851L43.6254 9.29568C43.2348 8.90507 42.6018 8.90507 42.2112 9.29568L40.9185 10.5884L39.6258 9.29568C39.2352 8.90507 38.6022 8.90507 38.2116 9.29568L37.9188 9.58851L37.9187 4.00315ZM26.9194 4.00315H35.9188V12.0026C35.9188 12.4071 36.1625 12.7718 36.5362 12.9267C36.9098 13.0812 37.3397 12.9959 37.6258 12.7097L38.9185 11.417L40.2113 12.7097C40.6019 13.1003 41.2348 13.1003 41.6255 12.7097L42.9182 11.417L44.2109 12.7097C44.497 12.9959 44.9269 13.0812 45.3006 12.9267C45.6742 12.7718 45.9179 12.4071 45.9179 12.0026V4.00315H54.9174V40.0009H42.9181V17.0023C42.9181 16.7372 42.8128 16.4827 42.6253 16.2952C42.4378 16.1077 42.1833 16.0024 41.9182 16.0024H26.9191L26.9194 4.00315ZM25.9194 18.0023H31.919V23.5876L31.6262 23.2948C31.2356 22.9042 30.6026 22.9042 30.212 23.2948L28.9193 24.5875L27.6266 23.2948C27.236 22.9042 26.603 22.9042 26.2124 23.2948L25.9195 23.5876L25.9194 18.0023ZM16.92 18.0023H23.9195V26.0018C23.9195 26.4062 24.1633 26.7709 24.5369 26.9258C24.9105 27.0803 25.3404 26.995 25.6266 26.7089L26.9193 25.4161L28.212 26.7089C28.6026 27.0995 29.2356 27.0995 29.6262 26.7089L30.9189 25.4161L32.2116 26.7089C32.4978 26.995 32.9277 27.0803 33.3013 26.9258C33.6749 26.7709 33.9187 26.4062 33.9187 26.0018V18.0023H40.9182V40.0009H16.9198L16.92 18.0023ZM3.24999 3.91744C2.81208 3.47953 2.81208 2.76975 3.24999 2.33183C3.68791 1.89392 4.39769 1.89392 4.83561 2.33183L9.921 7.41722V35.1275C9.26524 34.9583 8.57686 34.9583 7.92113 35.1275V9.00227C7.92113 8.73711 7.81578 8.48265 7.62829 8.29517L3.24999 3.91744ZM6.92119 39.0009C6.92119 38.2863 7.30241 37.6261 7.92113 37.2689C8.53984 36.9118 9.3023 36.9118 9.921 37.2689C10.5397 37.6261 10.9209 38.2863 10.9209 39.0009V44.0006H6.92119V39.0009ZM24.9201 53C24.9192 54.2075 24.4817 55.3736 23.688 56.2833C22.8943 57.1935 21.798 57.785 20.602 57.9497C19.4057 58.1144 18.1905 57.8403 17.1804 57.1787C16.1707 56.5172 15.4341 55.5123 15.1073 54.3499C14.7805 53.1879 14.8854 51.9465 15.4024 50.8555C15.9193 49.7645 16.8139 48.8976 17.9205 48.4146V53C17.9205 53.2652 18.0258 53.5197 18.2133 53.7071C18.4008 53.8946 18.6553 54 18.9204 54H20.9203C21.2239 54 21.5113 53.862 21.7011 53.6245L24.229 50.465C24.6817 51.2332 24.9201 52.1086 24.9201 53ZM23.9201 47.6495L20.4395 52.0001H19.9204V46.0005H23.9201V47.6495ZM53.9182 53C53.9173 54.2075 53.4799 55.3736 52.6862 56.2833C51.8925 57.1935 50.7961 57.785 49.6002 57.9497C48.4038 58.1144 47.1887 57.8403 46.1786 57.1787C45.1688 56.5172 44.4323 55.5123 44.1055 54.3499C43.7787 53.1879 43.8836 51.9465 44.4005 50.8555C44.9175 49.7645 45.8121 48.8976 46.9187 48.4146V53C46.9187 53.2652 47.024 53.5197 47.2115 53.7071C47.399 53.8946 47.6534 54 47.9186 54H49.9185C50.222 54 50.5095 53.862 50.6992 53.6245L53.2272 50.465C53.6798 51.2332 53.9182 52.1086 53.9182 53ZM52.9183 47.6495L49.4377 52.0001H48.9185V46.0005H52.9183V47.6495ZM58.9179 44.0006H12.9208V42.0007H58.9179V44.0006Z" fill="white" fill-opacity="0.85"/>
<path d="M9.92043 39.0009C9.92043 39.5531 9.47269 40.0009 8.92049 40.0009C8.3683 40.0009 7.92056 39.5531 7.92056 39.0009C7.92056 38.4487 8.3683 38.001 8.92049 38.001C9.47269 38.001 9.92043 38.4487 9.92043 39.0009Z" fill="white" fill-opacity="0.85"/>
<path d="M33.9189 36.0011H35.9188V38.001H33.9189V36.0011Z" fill="white" fill-opacity="0.85"/>
<path d="M30.9191 36.0011H32.919V38.001H30.9191V36.0011Z" fill="white" fill-opacity="0.85"/>
<path d="M36.9187 36.0011H38.9186V38.001H36.9187V36.0011Z" fill="white" fill-opacity="0.85"/>
<path d="M47.918 36.0011H49.9179V38.001H47.918V36.0011Z" fill="white" fill-opacity="0.85"/>
<path d="M44.9182 36.0011H46.9181V38.001H44.9182V36.0011Z" fill="white" fill-opacity="0.85"/>
<path d="M50.9178 36.0011H52.9177V38.001H50.9178V36.0011Z" fill="white" fill-opacity="0.85"/>
<path d="M18.9199 32.0014H20.9197V34.0013H18.9199V32.0014Z" fill="white" fill-opacity="0.85"/>
<path d="M22.9196 32.0014H26.9194V34.0013H22.9196V32.0014Z" fill="white" fill-opacity="0.85"/>
<path d="M18.9199 36.0011H24.9195V38.001H18.9199V36.0011Z" fill="white" fill-opacity="0.85"/>
</svg>
