<svg width="61" height="61" viewBox="0 0 61 61" fill="none" xmlns="http://www.w3.org/2000/svg">
<path d="M54.2463 32.9953L54.2828 14.0177C57.5615 13.5518 60.0955 10.7376 60.1021 7.33195C60.1093 3.59747 57.0762 0.551922 53.3409 0.544739C49.6057 0.537556 46.5609 3.57141 46.5537 7.30589L0.102207 7.21656L0.0277663 45.9262L29.1097 45.9821C29.5975 54.0693 36.3061 60.5121 44.5159 60.5279C53.0531 60.5443 60.0131 53.6111 60.0295 45.0738C60.0389 40.1975 57.7761 35.8422 54.2463 32.9952L54.2463 32.9953ZM53.3372 2.48033C56.0054 2.48546 58.1717 4.66014 58.1666 7.32834C58.1615 9.99653 55.9868 12.1629 53.3186 12.1577C50.6504 12.1526 48.4841 9.97792 48.4892 7.30973C48.4943 4.64153 50.669 2.4752 53.3372 2.48033ZM2.03397 9.15588L46.8354 9.24203C47.065 10.0149 47.4317 10.7268 47.9027 11.3584L41.9725 17.2658C41.5936 17.0832 41.1756 16.9731 40.7284 16.9723C40.2812 16.9714 39.8628 17.0799 39.4845 17.2611L37.5381 15.3071C37.7198 14.9286 37.8299 14.5106 37.8308 14.0634C37.8338 12.4627 36.5338 11.1577 34.9331 11.1546C33.3324 11.1516 32.0274 12.4516 32.0243 14.0523C32.0235 14.4994 32.132 14.9178 32.3131 15.2962L27.4504 20.1403C27.0718 19.9585 26.6539 19.8484 26.2067 19.8475C24.606 19.8445 23.301 21.1445 23.2979 22.7452C23.2948 24.3459 24.5948 25.6509 26.1955 25.654C27.7962 25.6571 29.1013 24.357 29.1043 22.7563C29.1052 22.3092 28.9967 21.8908 28.8155 21.5124L33.6783 16.6684C34.0568 16.8501 34.4748 16.9602 34.922 16.9611C35.3691 16.9619 35.7875 16.8534 36.1659 16.6723L38.1123 18.6262C37.9306 19.0048 37.8205 19.4227 37.8196 19.8699C37.8165 21.4706 39.1165 22.7756 40.7172 22.7787C42.3179 22.7818 43.623 21.4818 43.626 19.8811C43.6269 19.4339 43.5184 19.0155 43.3372 18.6372L49.2682 12.7297C50.1526 13.3955 51.2024 13.8472 52.3469 14.0148L52.313 31.6708C50.0344 30.3415 47.3971 29.5652 44.5751 29.5598C39.9494 29.5509 35.7976 31.5924 32.9521 34.8147L32.9603 30.5052L27.1539 30.494L27.1316 42.1069L29.3496 42.1112C29.2283 42.743 29.1545 43.39 29.1126 44.0462L1.96612 43.994L2.03397 9.15588ZM40.725 18.9077C41.2581 18.9087 41.6919 19.3433 41.6908 19.8773C41.6898 20.4113 41.2544 20.8442 40.7212 20.8432C40.1881 20.8422 39.7543 20.4076 39.7554 19.8736C39.7564 19.3396 40.1918 18.9067 40.725 18.9077ZM33.9601 14.056C33.9611 13.522 34.3966 13.0891 34.9297 13.0901C35.4628 13.0911 35.8966 13.5257 35.8956 14.0597C35.8945 14.5937 35.4591 15.0266 34.926 15.0256C34.3928 15.0246 33.9591 14.59 33.9601 14.056ZM27.1692 22.7526C27.1681 23.2866 26.7327 23.7195 26.1996 23.7185C25.6664 23.7175 25.2326 23.2829 25.2337 22.7489C25.2347 22.2149 25.6702 21.782 26.2033 21.783C26.7364 21.7841 27.1702 22.2186 27.1692 22.7526ZM44.5308 52.7861C40.2619 52.7779 36.7955 49.2982 36.8038 45.0293C36.812 40.7604 40.2917 37.294 44.5606 37.3022C48.8295 37.3104 52.2958 40.7901 52.2876 45.059C52.2794 49.3279 48.7997 52.7943 44.5308 52.7861ZM31.0117 37.5383C30.5465 38.3734 30.1616 39.2561 29.8562 40.1771L29.0712 40.1756L29.0861 32.4336L31.0215 32.4374L31.0117 37.5383ZM43.6039 31.543L43.5964 35.414C38.7124 35.8924 34.8779 40.0165 34.8683 45.0254C34.8656 46.4412 35.1766 47.7841 35.723 48.9987L32.362 50.9307C31.4928 49.1404 30.9933 47.1383 30.9974 45.0179C31.0111 37.8738 36.5839 32.0288 43.604 31.5435L43.6039 31.543ZM44.5196 58.5918C39.8611 58.5829 35.7488 56.2109 33.3175 52.614L36.6919 50.6741C38.4464 53.1141 41.2991 54.7147 44.5276 54.7209C47.7561 54.7271 50.6149 53.1375 52.3788 50.7043L55.7458 52.6571C53.3001 56.2447 49.1788 58.6008 44.5207 58.5918L44.5196 58.5918ZM56.7068 50.9771L53.3533 49.0322C53.9043 47.8196 54.2206 46.478 54.2233 45.0622C54.2329 40.0533 50.4144 35.9136 45.5321 35.4173L45.5396 31.5463C52.5578 32.0592 58.108 37.9256 58.0942 45.0691C58.0902 47.1895 57.583 49.1897 56.7069 50.9766L56.7068 50.9771Z" fill="white" fill-opacity="0.85"/>
<path d="M44.5567 39.2368C41.3544 39.2306 38.745 41.83 38.7388 45.0323C38.7327 48.2346 41.3321 50.844 44.5344 50.8502C47.7367 50.8563 50.3461 48.2569 50.3523 45.0546C50.3584 41.8523 47.759 39.2429 44.5567 39.2368ZM44.5381 48.9146C42.4033 48.9105 40.6703 47.1708 40.6744 45.036C40.6785 42.9013 42.4182 41.1682 44.553 41.1723C46.6878 41.1764 48.4208 42.9161 48.4167 45.0509C48.4126 47.1857 46.6729 48.9187 44.5381 48.9146Z" fill="white" fill-opacity="0.85"/>
<path d="M3.96484 11.0947L5.90041 11.0984L5.89669 13.034L3.96112 13.0303L3.96484 11.0947Z" fill="white" fill-opacity="0.85"/>
<path d="M7.83594 11.1025L21.3849 11.1286L21.3812 13.0642L7.83222 13.0381L7.83594 11.1025Z" fill="white" fill-opacity="0.85"/>
<path d="M3.95898 14.9658L5.89455 14.9695L5.89083 16.9051L3.95526 16.9014L3.95898 14.9658Z" fill="white" fill-opacity="0.85"/>
<path d="M7.83008 14.9736L21.3791 14.9997L21.3753 16.9353L7.82636 16.9092L7.83008 14.9736Z" fill="white" fill-opacity="0.85"/>
<path d="M3.95117 18.837L5.88674 18.8407L5.88302 20.7763L3.94745 20.7725L3.95117 18.837Z" fill="white" fill-opacity="0.85"/>
<path d="M7.82227 18.8447L21.3713 18.8708L21.3675 20.8064L7.81854 20.7803L7.82227 18.8447Z" fill="white" fill-opacity="0.85"/>
<path d="M3.94336 22.708L5.87893 22.7117L5.87521 24.6473L3.93964 24.6436L3.94336 22.708Z" fill="white" fill-opacity="0.85"/>
<path d="M7.81445 22.7158L21.3634 22.7419L21.3597 24.6774L7.81073 24.6514L7.81445 22.7158Z" fill="white" fill-opacity="0.85"/>
<path d="M3.90522 42.0636L9.71193 42.0748L9.73054 32.3969L3.92383 32.3857L3.90522 42.0636ZM5.85568 34.325L7.79125 34.3288L7.78008 40.1355L5.84451 40.1317L5.85568 34.325Z" fill="white" fill-opacity="0.85"/>
<path d="M11.6472 42.0772L17.4539 42.0884L17.4688 34.3461L11.6621 34.335L11.6472 42.0772ZM13.594 36.2743L15.5295 36.278L15.5221 40.1491L13.5865 40.1454L13.594 36.2743Z" fill="white" fill-opacity="0.85"/>
<path d="M19.3901 42.093L25.1969 42.1041L25.2266 26.6196L19.4199 26.6084L19.3901 42.093ZM21.3518 28.5477L23.2873 28.5514L23.265 40.1648L21.3294 40.1611L21.3518 28.5477Z" fill="white" fill-opacity="0.85"/>
</svg>
